<svg width="258" height="124" viewBox="0 0 258 124" fill="none" xmlns="http://www.w3.org/2000/svg">
<g clip-path="url(#clip0_2_153)">
<g filter="url(#filter0_d_2_153)">
<rect width="258" height="124" rx="5" fill="#FBFBFB"/>
</g>
<rect opacity="0.101652" x="32" y="32" width="60" height="60" rx="6" fill="#F9CE23"/>
<path d="M69.6575 67.1C69.225 68.0575 69.0187 68.485 68.4612 69.3313C67.685 70.5125 66.5912 71.985 65.235 71.9975C64.03 72.0088 63.72 71.2138 62.085 71.2225C60.45 71.2313 60.1075 72.0113 58.9025 72C57.5462 71.9875 56.51 70.6588 55.7325 69.4763C53.5625 66.1713 53.335 62.2938 54.6737 60.2325C55.625 58.7663 57.1262 57.91 58.5387 57.91C59.9762 57.91 60.8787 58.6975 62.0675 58.6975C63.22 58.6975 63.9225 57.9088 65.585 57.9088C66.8412 57.9088 68.1725 58.5925 69.12 59.7738C66.0137 61.4775 66.5187 65.9138 69.6575 67.1Z" fill="#FDCC0C"/>
<path d="M54.8428 67.1C55.2753 68.0575 55.4816 68.485 56.0391 69.3313C56.8153 70.5125 57.9091 71.985 59.2653 71.9975C60.4703 72.0088 60.7803 71.2138 62.4153 71.2225C64.0503 71.2313 64.3928 72.0113 65.5978 72C66.9541 71.9875 67.9903 70.6588 68.7678 69.4763C70.9378 66.1713 71.1653 62.2938 69.8266 60.2325C68.8753 58.7663 67.3741 57.91 65.9616 57.91C64.5241 57.91 63.6216 58.6975 62.4328 58.6975C61.2803 58.6975 60.5778 57.9088 58.9153 57.9088C57.6591 57.9088 56.3278 58.5925 55.3803 59.7738C58.4866 61.4775 57.9816 65.9138 54.8428 67.1Z" fill="#FDCC0C"/>
<path d="M65.005 55.3737C65.6875 54.4987 66.205 53.2625 66.0162 52C64.9025 52.0763 63.6 52.785 62.8387 53.7088C62.1487 54.5475 61.5787 55.7912 61.8 57C63.0162 57.0375 64.2737 56.3112 65.005 55.3737Z" fill="#FDCC0C"/>
<path d="M126.713 58H116.967V56.0664L121.566 51.1641C122.198 50.474 122.663 49.8717 122.963 49.3574C123.269 48.8431 123.422 48.3548 123.422 47.8926C123.422 47.2611 123.262 46.7663 122.943 46.4082C122.624 46.0436 122.169 45.8613 121.576 45.8613C120.938 45.8613 120.434 46.0827 120.062 46.5254C119.698 46.9616 119.516 47.5378 119.516 48.2539H116.684C116.684 47.388 116.889 46.597 117.299 45.8809C117.715 45.1647 118.301 44.6048 119.057 44.2012C119.812 43.791 120.668 43.5859 121.625 43.5859C123.09 43.5859 124.226 43.9375 125.033 44.6406C125.847 45.3438 126.254 46.3366 126.254 47.6191C126.254 48.3223 126.072 49.0384 125.707 49.7676C125.342 50.4967 124.717 51.3464 123.832 52.3164L120.6 55.7246H126.713V58ZM135.053 52.3164C134.317 53.0391 133.458 53.4004 132.475 53.4004C131.218 53.4004 130.212 52.9707 129.457 52.1113C128.702 51.2454 128.324 50.0801 128.324 48.6152C128.324 47.6842 128.526 46.8314 128.93 46.0566C129.34 45.2754 129.91 44.6699 130.639 44.2402C131.368 43.804 132.188 43.5859 133.1 43.5859C134.037 43.5859 134.87 43.8203 135.6 44.2891C136.329 44.7578 136.895 45.4316 137.299 46.3105C137.702 47.1895 137.908 48.1953 137.914 49.3281V50.373C137.914 52.7428 137.325 54.6048 136.146 55.959C134.968 57.3132 133.298 58.0358 131.137 58.127L130.443 58.1367V55.7832L131.068 55.7734C133.523 55.6628 134.851 54.5104 135.053 52.3164ZM133.168 51.2422C133.624 51.2422 134.014 51.125 134.34 50.8906C134.672 50.6562 134.923 50.373 135.092 50.041V48.8789C135.092 47.9219 134.91 47.1797 134.545 46.6523C134.18 46.125 133.692 45.8613 133.08 45.8613C132.514 45.8613 132.048 46.1217 131.684 46.6426C131.319 47.1569 131.137 47.8047 131.137 48.5859C131.137 49.3607 131.312 49.9987 131.664 50.5C132.022 50.9948 132.523 51.2422 133.168 51.2422ZM149.506 52.1211C149.506 54.0872 149.099 55.5911 148.285 56.6328C147.471 57.6745 146.28 58.1953 144.711 58.1953C143.161 58.1953 141.977 57.6842 141.156 56.6621C140.336 55.64 139.916 54.1751 139.896 52.2676V49.6504C139.896 47.6647 140.307 46.1576 141.127 45.1289C141.954 44.1003 143.142 43.5859 144.691 43.5859C146.241 43.5859 147.426 44.097 148.246 45.1191C149.066 46.1348 149.486 47.5964 149.506 49.5039V52.1211ZM146.684 49.25C146.684 48.0716 146.521 47.2155 146.195 46.6816C145.876 46.1413 145.375 45.8711 144.691 45.8711C144.027 45.8711 143.536 46.1283 143.217 46.6426C142.904 47.1504 142.738 47.9479 142.719 49.0352V52.4922C142.719 53.651 142.875 54.5137 143.188 55.0801C143.507 55.64 144.014 55.9199 144.711 55.9199C145.401 55.9199 145.899 55.6497 146.205 55.1094C146.511 54.569 146.671 53.7422 146.684 52.6289V49.25ZM151.127 52.6387C151.127 51.0176 151.511 49.7122 152.279 48.7227C153.054 47.7331 154.096 47.2383 155.404 47.2383C156.563 47.2383 157.465 47.6354 158.109 48.4297L158.227 47.4336H160.785V57.6484C160.785 58.5729 160.574 59.377 160.15 60.0605C159.734 60.7441 159.145 61.265 158.383 61.623C157.621 61.9811 156.729 62.1602 155.707 62.1602C154.932 62.1602 154.177 62.0039 153.441 61.6914C152.706 61.3854 152.149 60.9883 151.771 60.5L153.021 58.7812C153.725 59.569 154.577 59.9629 155.58 59.9629C156.329 59.9629 156.911 59.7611 157.328 59.3574C157.745 58.9603 157.953 58.3939 157.953 57.6582V57.0918C157.302 57.8275 156.446 58.1953 155.385 58.1953C154.115 58.1953 153.087 57.7005 152.299 56.7109C151.518 55.7148 151.127 54.3965 151.127 52.7559V52.6387ZM153.949 52.8438C153.949 53.8008 154.141 54.5527 154.525 55.0996C154.91 55.64 155.437 55.9102 156.107 55.9102C156.967 55.9102 157.582 55.5879 157.953 54.9434V50.5C157.576 49.8555 156.967 49.5332 156.127 49.5332C155.45 49.5332 154.916 49.8099 154.525 50.3633C154.141 50.9167 153.949 51.7435 153.949 52.8438Z" fill="#282D30"/>
<path d="M124.641 80.708C124.281 81.1774 123.782 81.5329 123.144 81.7744C122.506 82.016 121.781 82.1367 120.97 82.1367C120.136 82.1367 119.397 81.9476 118.755 81.5693C118.112 81.1911 117.616 80.651 117.265 79.9492C116.918 79.2428 116.738 78.4202 116.725 77.4814V76.7021C116.725 75.1982 117.085 74.0247 117.805 73.1816C118.525 72.334 119.53 71.9102 120.819 71.9102C121.927 71.9102 122.806 72.1836 123.458 72.7305C124.11 73.2773 124.502 74.0658 124.634 75.0957H122.938C122.747 73.8971 122.052 73.2979 120.854 73.2979C120.079 73.2979 119.489 73.5781 119.083 74.1387C118.682 74.6947 118.475 75.5127 118.461 76.5928V77.3584C118.461 78.4339 118.687 79.2702 119.138 79.8672C119.593 80.4596 120.225 80.7559 121.031 80.7559C121.915 80.7559 122.544 80.5553 122.918 80.1543V78.2061H120.867V76.8936H124.641V80.708ZM128.147 82H126.486V71.5H128.147V82ZM134.443 81.2754C133.956 81.8496 133.263 82.1367 132.365 82.1367C131.563 82.1367 130.955 81.902 130.54 81.4326C130.13 80.9632 129.925 80.2842 129.925 79.3955V74.6035H131.586V79.375C131.586 80.3138 131.976 80.7832 132.755 80.7832C133.562 80.7832 134.106 80.4938 134.389 79.915V74.6035H136.05V82H134.484L134.443 81.2754ZM140.78 80.8105C141.195 80.8105 141.539 80.6898 141.812 80.4482C142.086 80.2067 142.232 79.9082 142.25 79.5527H143.815C143.797 80.013 143.654 80.4437 143.385 80.8447C143.116 81.2412 142.751 81.5557 142.291 81.7881C141.831 82.0205 141.334 82.1367 140.801 82.1367C139.766 82.1367 138.946 81.8018 138.34 81.1318C137.734 80.4619 137.431 79.5368 137.431 78.3564V78.1855C137.431 77.0599 137.731 76.1598 138.333 75.4854C138.935 74.8063 139.755 74.4668 140.794 74.4668C141.674 74.4668 142.389 74.7243 142.94 75.2393C143.496 75.7497 143.788 76.4219 143.815 77.2559H142.25C142.232 76.832 142.086 76.4834 141.812 76.21C141.544 75.9365 141.2 75.7998 140.78 75.7998C140.243 75.7998 139.828 75.9958 139.536 76.3877C139.244 76.7751 139.096 77.3652 139.092 78.1582V78.4248C139.092 79.2269 139.235 79.8262 139.522 80.2227C139.814 80.6146 140.233 80.8105 140.78 80.8105ZM146.837 82H145.176V74.6035H146.837V82ZM145.073 72.6826C145.073 72.4274 145.153 72.2155 145.312 72.0469C145.477 71.8783 145.709 71.7939 146.01 71.7939C146.311 71.7939 146.543 71.8783 146.707 72.0469C146.871 72.2155 146.953 72.4274 146.953 72.6826C146.953 72.9333 146.871 73.1429 146.707 73.3115C146.543 73.4756 146.311 73.5576 146.01 73.5576C145.709 73.5576 145.477 73.4756 145.312 73.3115C145.153 73.1429 145.073 72.9333 145.073 72.6826ZM148.341 78.2471C148.341 77.1077 148.605 76.194 149.134 75.5059C149.662 74.8132 150.371 74.4668 151.26 74.4668C152.044 74.4668 152.677 74.7402 153.16 75.2871V71.5H154.821V82H153.317L153.235 81.2344C152.739 81.8359 152.076 82.1367 151.246 82.1367C150.38 82.1367 149.678 81.7881 149.141 81.0908C148.607 80.3936 148.341 79.4456 148.341 78.2471ZM150.002 78.3906C150.002 79.1426 150.146 79.7305 150.433 80.1543C150.724 80.5736 151.137 80.7832 151.67 80.7832C152.349 80.7832 152.846 80.4801 153.16 79.874V76.7158C152.855 76.1234 152.363 75.8271 151.684 75.8271C151.146 75.8271 150.731 76.0413 150.439 76.4697C150.148 76.8936 150.002 77.5339 150.002 78.3906ZM159.812 82.1367C158.759 82.1367 157.904 81.8063 157.248 81.1455C156.596 80.4801 156.271 79.596 156.271 78.4932V78.2881C156.271 77.5498 156.412 76.8913 156.694 76.3125C156.981 75.7292 157.382 75.2757 157.897 74.9521C158.412 74.6286 158.987 74.4668 159.62 74.4668C160.627 74.4668 161.404 74.7881 161.951 75.4307C162.503 76.0732 162.778 76.9824 162.778 78.1582V78.8281H157.945C157.995 79.4388 158.198 79.9219 158.554 80.2773C158.914 80.6328 159.365 80.8105 159.907 80.8105C160.668 80.8105 161.288 80.5029 161.767 79.8877L162.662 80.7422C162.366 81.1842 161.969 81.5283 161.473 81.7744C160.98 82.016 160.427 82.1367 159.812 82.1367ZM159.613 75.7998C159.158 75.7998 158.788 75.9593 158.506 76.2783C158.228 76.5973 158.05 77.0417 157.973 77.6113H161.138V77.4883C161.101 76.9323 160.953 76.513 160.693 76.2305C160.434 75.9434 160.074 75.7998 159.613 75.7998ZM168.22 79.9902C168.22 79.694 168.097 79.4684 167.851 79.3135C167.609 79.1585 167.206 79.0218 166.641 78.9033C166.076 78.7848 165.604 78.6344 165.226 78.4521C164.396 78.0511 163.981 77.4701 163.981 76.709C163.981 76.071 164.25 75.5378 164.788 75.1094C165.326 74.681 166.009 74.4668 166.839 74.4668C167.723 74.4668 168.436 74.6855 168.979 75.123C169.525 75.5605 169.799 76.1279 169.799 76.8252H168.138C168.138 76.5062 168.019 76.2419 167.782 76.0322C167.545 75.818 167.231 75.7109 166.839 75.7109C166.474 75.7109 166.176 75.7952 165.943 75.9639C165.715 76.1325 165.602 76.3581 165.602 76.6406C165.602 76.8958 165.709 77.0941 165.923 77.2354C166.137 77.3766 166.57 77.5202 167.222 77.666C167.873 77.8073 168.384 77.9782 168.753 78.1787C169.127 78.3747 169.402 78.6117 169.58 78.8896C169.762 79.1676 169.854 79.5049 169.854 79.9014C169.854 80.5667 169.578 81.1068 169.026 81.5215C168.475 81.9316 167.753 82.1367 166.859 82.1367C166.253 82.1367 165.713 82.0273 165.239 81.8086C164.765 81.5898 164.396 81.2891 164.132 80.9062C163.868 80.5234 163.735 80.111 163.735 79.6689H165.349C165.371 80.0609 165.52 80.3639 165.793 80.5781C166.066 80.7878 166.429 80.8926 166.88 80.8926C167.317 80.8926 167.65 80.8105 167.878 80.6465C168.106 80.4779 168.22 80.2591 168.22 79.9902Z" fill="#74798C"/>
</g>
<defs>
<filter id="filter0_d_2_153" x="-4" y="-2" width="266" height="132" filterUnits="userSpaceOnUse" color-interpolation-filters="sRGB">
<feFlood flood-opacity="0" result="BackgroundImageFix"/>
<feColorMatrix in="SourceAlpha" type="matrix" values="0 0 0 0 0 0 0 0 0 0 0 0 0 0 0 0 0 0 127 0" result="hardAlpha"/>
<feOffset dy="2"/>
<feGaussianBlur stdDeviation="2"/>
<feColorMatrix type="matrix" values="0 0 0 0 0 0 0 0 0 0 0 0 0 0 0 0 0 0 0.0212249 0"/>
<feBlend mode="normal" in2="BackgroundImageFix" result="effect1_dropShadow_2_153"/>
<feBlend mode="normal" in="SourceGraphic" in2="effect1_dropShadow_2_153" result="shape"/>
</filter>
<clipPath id="clip0_2_153">
<rect width="258" height="124" fill="white"/>
</clipPath>
</defs>
</svg>
