<svg width="64" height="64" viewBox="0 0 64 64" fill="none" xmlns="http://www.w3.org/2000/svg">
<path d="M58 0H6C2.68629 0 0 2.68629 0 6V58C0 61.3137 2.68629 64 6 64H58C61.3137 64 64 61.3137 64 58V6C64 2.68629 61.3137 0 58 0Z" fill="white"/>
<path d="M32.039 18.039C28.9906 18.039 26.5195 15.5678 26.5195 12.5195C26.5195 9.47116 28.9906 7 32.039 7C35.0873 7 37.5584 9.47116 37.5584 12.5195C37.5584 15.5678 35.0873 18.039 32.039 18.039Z" fill="black"/>
<path d="M27.308 19.3377H36.7699C38.4414 19.3426 40.043 20.0055 41.2249 21.1816C42.4068 22.3577 43.073 23.9515 43.0779 25.6147V36.1602C43.0779 37.2243 42.247 38.1296 41.1786 38.1678C40.9139 38.1775 40.6498 38.1339 40.4024 38.0397C40.1549 37.9455 39.9291 37.8026 39.7384 37.6196C39.5476 37.4366 39.3959 37.2172 39.2924 36.9745C39.1888 36.7319 39.1354 36.4709 39.1354 36.2073V26.4258C39.1379 26.2234 39.0635 26.0275 38.9269 25.8775C38.7904 25.7274 38.6019 25.6342 38.3992 25.6167C38.2913 25.6096 38.1831 25.6246 38.0814 25.6608C37.9796 25.697 37.8864 25.7537 37.8075 25.8273C37.7287 25.9009 37.6659 25.9898 37.623 26.0885C37.5802 26.1873 37.5582 26.2937 37.5584 26.4013V54.7442C37.5584 55.3425 37.3196 55.9162 36.8945 56.3393C36.4693 56.7623 35.8927 57 35.2915 57C34.6903 57 34.1137 56.7623 33.6886 56.3393C33.2634 55.9162 33.0246 55.3425 33.0246 54.7442V40.7522C33.0281 40.4989 32.9353 40.2537 32.7647 40.0656C32.5942 39.8776 32.3585 39.7606 32.105 39.7381C31.9701 39.7291 31.8348 39.7478 31.7075 39.793C31.5802 39.8383 31.4636 39.9091 31.365 40.0011C31.2663 40.093 31.1878 40.2042 31.1342 40.3277C31.0805 40.4512 31.053 40.5844 31.0533 40.7189V54.7442C31.0533 55.3425 30.8145 55.9162 30.3894 56.3393C29.9642 56.7623 29.3876 57 28.7864 57C28.1852 57 27.6086 56.7623 27.1834 56.3393C26.7583 55.9162 26.5195 55.3425 26.5195 54.7442V26.4258C26.522 26.2234 26.4475 26.0275 26.311 25.8775C26.1744 25.7274 25.9859 25.6342 25.7832 25.6167C25.6754 25.6096 25.5672 25.6246 25.4654 25.6608C25.3636 25.697 25.2704 25.7537 25.1916 25.8273C25.1127 25.9009 25.0499 25.9898 25.0071 26.0885C24.9642 26.1873 24.9422 26.2937 24.9425 26.4013V36.1621C24.9425 37.2263 24.1116 38.1316 23.0432 38.1698C22.7783 38.1794 22.5141 38.1358 22.2665 38.0415C22.0189 37.9472 21.793 37.8041 21.6022 37.6209C21.4115 37.4377 21.2598 37.218 21.1563 36.9751C21.0529 36.7322 20.9997 36.4711 21 36.2073V25.6147C21.0049 23.9515 21.6711 22.3577 22.853 21.1816C24.0349 20.0055 25.6365 19.3426 27.308 19.3377V19.3377Z" fill="black"/>
</svg>
