<svg width="266" height="271" viewBox="0 0 266 271" fill="none" xmlns="http://www.w3.org/2000/svg">
<g filter="url(#filter0_d_2_155)">
<rect x="4" y="2" width="258" height="263" rx="5" fill="#FF0000"/>
</g>
<mask id="mask0_2_155" style="mask-type:alpha" maskUnits="userSpaceOnUse" x="4" y="2" width="258" height="263">
<rect x="4" y="2" width="258" height="263" rx="5" fill="white"/>
</mask>
<g mask="url(#mask0_2_155)">
<rect opacity="0.097497" x="183" y="-54.8947" width="79" height="397.523" fill="black"/>
<mask id="mask1_2_155" style="mask-type:alpha" maskUnits="userSpaceOnUse" x="4" y="124" width="179" height="161">
<rect x="4" y="124" width="179" height="161" fill="white"/>
</mask>
<g mask="url(#mask1_2_155)">
<path opacity="0.100446" fill-rule="evenodd" clip-rule="evenodd" d="M-47.7754 179.22C-47.7754 179.22 -32.796 155.478 -20.0339 179.22C-7.27175 202.961 -2.59653 202.318 -2.59653 202.318C-2.59653 202.318 2.96148 202.769 12.8382 174.659C22.715 146.55 36.3151 162.065 36.3151 162.065L49.4431 179.22C49.4431 179.22 62.1044 196.337 73.0991 185.498C84.0938 174.659 92.1761 173.269 92.1761 173.269C92.1761 173.269 103.075 172.772 111.74 188.183C120.406 203.594 127.494 205.025 127.494 205.025C127.494 205.025 138.797 209.283 153.095 174.659C167.393 140.035 182.398 139.616 182.398 139.616C182.398 139.616 195.103 138.633 201.305 162.065C207.507 185.498 217.103 185.498 217.103 185.498C217.103 185.498 241.258 186.192 256.401 114.91C271.545 43.6286 291.453 114.91 291.453 114.91C291.453 114.91 299.145 149.227 313.865 152.447C328.584 155.667 313.865 308.704 313.865 308.704H-47.7754V179.22Z" fill="url(#paint0_linear_2_155)"/>
</g>
<path d="M-47.7754 179.213C-47.7754 179.213 -32.7811 155.473 -20.0063 179.213C-7.23146 202.953 -2.55159 202.31 -2.55159 202.31C-2.55159 202.31 3.01195 202.76 12.8985 174.653C22.7851 146.546 36.3988 162.06 36.3988 162.06L49.5398 179.213C49.5398 179.213 62.2137 196.329 73.2194 185.491C84.225 174.653 92.3153 173.263 92.3153 173.263C92.3153 173.263 103.225 172.766 111.899 188.176C120.573 203.586 127.668 205.017 127.668 205.017C127.668 205.017 138.982 209.275 153.295 174.653C167.607 140.031 182.627 139.612 182.627 139.612C182.627 139.612 195.344 138.629 201.552 162.06C207.76 185.491 217.367 185.491 217.367 185.491C217.367 185.491 241.545 186.184 256.704 114.908C271.863 43.631 291.791 114.908 291.791 114.908C291.791 114.908 299.49 149.222 314.225 152.442" stroke="url(#paint1_linear_2_155)" stroke-width="2"/>
</g>
<g opacity="0.5" clip-path="url(#clip0_2_155)">
<path d="M20.3496 239.816H24.2227V241H18.8672V232.469H20.3496V239.816Z" fill="white"/>
<path d="M55.7891 232.469L58.25 239.008L60.7051 232.469H62.6211V241H61.1445V238.188L61.291 234.426L58.7715 241H57.7109L55.1973 234.432L55.3438 238.188V241H53.8672V232.469H55.7891Z" fill="white"/>
<path d="M95.7891 232.469L98.25 239.008L100.705 232.469H102.621V241H101.145V238.188L101.291 234.426L98.7715 241H97.7109L95.1973 234.432L95.3438 238.188V241H93.8672V232.469H95.7891Z" fill="white"/>
<path d="M137.359 232.469H138.836V238.451C138.836 239.268 138.58 239.916 138.068 240.396C137.561 240.877 136.889 241.117 136.053 241.117C135.162 241.117 134.475 240.893 133.99 240.443C133.506 239.994 133.264 239.369 133.264 238.568H134.74C134.74 239.021 134.852 239.363 135.074 239.594C135.301 239.82 135.627 239.934 136.053 239.934C136.451 239.934 136.768 239.803 137.002 239.541C137.24 239.275 137.359 238.91 137.359 238.445V232.469Z" fill="white"/>
<path d="M171.873 239.143L174.041 232.469H175.67L172.6 241H171.164L168.105 232.469H169.729L171.873 239.143Z" fill="white"/>
<path d="M209.326 238.803C209.326 238.428 209.193 238.139 208.928 237.936C208.666 237.732 208.191 237.527 207.504 237.32C206.816 237.113 206.27 236.883 205.863 236.629C205.086 236.141 204.697 235.504 204.697 234.719C204.697 234.031 204.977 233.465 205.535 233.02C206.098 232.574 206.826 232.352 207.721 232.352C208.314 232.352 208.844 232.461 209.309 232.68C209.773 232.898 210.139 233.211 210.404 233.617C210.67 234.02 210.803 234.467 210.803 234.959H209.326C209.326 234.514 209.186 234.166 208.904 233.916C208.627 233.662 208.229 233.535 207.709 233.535C207.225 233.535 206.848 233.639 206.578 233.846C206.312 234.053 206.18 234.342 206.18 234.713C206.18 235.025 206.324 235.287 206.613 235.498C206.902 235.705 207.379 235.908 208.043 236.107C208.707 236.303 209.24 236.527 209.643 236.781C210.045 237.031 210.34 237.32 210.527 237.648C210.715 237.973 210.809 238.354 210.809 238.791C210.809 239.502 210.535 240.068 209.988 240.49C209.445 240.908 208.707 241.117 207.773 241.117C207.156 241.117 206.588 241.004 206.068 240.777C205.553 240.547 205.15 240.23 204.861 239.828C204.576 239.426 204.434 238.957 204.434 238.422H205.916C205.916 238.906 206.076 239.281 206.396 239.547C206.717 239.812 207.176 239.945 207.773 239.945C208.289 239.945 208.676 239.842 208.934 239.635C209.195 239.424 209.326 239.146 209.326 238.803Z" fill="white"/>
<path d="M240.867 241V232.469H243.387C244.141 232.469 244.809 232.637 245.391 232.973C245.977 233.309 246.43 233.785 246.75 234.402C247.07 235.02 247.23 235.727 247.23 236.523V236.951C247.23 237.76 247.068 238.471 246.744 239.084C246.424 239.697 245.965 240.17 245.367 240.502C244.773 240.834 244.092 241 243.322 241H240.867ZM242.35 233.664V239.816H243.316C244.094 239.816 244.689 239.574 245.104 239.09C245.521 238.602 245.734 237.902 245.742 236.992V236.518C245.742 235.592 245.541 234.885 245.139 234.396C244.736 233.908 244.152 233.664 243.387 233.664H242.35Z" fill="white"/>
</g>
<path opacity="0.503957" d="M39.084 48V37.3359H42.2334C43.1758 37.3359 44.0107 37.5459 44.7383 37.9658C45.4707 38.3857 46.0371 38.9814 46.4375 39.7529C46.8379 40.5244 47.0381 41.4082 47.0381 42.4043V42.939C47.0381 43.9497 46.8354 44.8384 46.4302 45.605C46.0298 46.3716 45.4561 46.9624 44.709 47.3774C43.9668 47.7925 43.1147 48 42.1528 48H39.084ZM40.937 38.8301V46.5205H42.1455C43.1172 46.5205 43.8618 46.2178 44.3794 45.6123C44.9019 45.002 45.168 44.1279 45.1777 42.9902V42.397C45.1777 41.2397 44.9263 40.356 44.4233 39.7456C43.9204 39.1353 43.1904 38.8301 42.2334 38.8301H40.937ZM53.5127 47.2236C52.9902 47.8389 52.248 48.1465 51.2861 48.1465C50.4268 48.1465 49.7749 47.895 49.3306 47.3921C48.8911 46.8892 48.6714 46.1616 48.6714 45.2095V40.0752H50.4512V45.1875C50.4512 46.1934 50.8687 46.6963 51.7036 46.6963C52.5679 46.6963 53.1514 46.3862 53.4541 45.7661V40.0752H55.2339V48H53.5566L53.5127 47.2236ZM61.1958 41.7012C60.9614 41.6621 60.7197 41.6426 60.4707 41.6426C59.6553 41.6426 59.106 41.9551 58.8228 42.5801V48H57.043V40.0752H58.7422L58.7861 40.9614C59.2158 40.2729 59.8115 39.9287 60.5732 39.9287C60.8271 39.9287 61.0371 39.9629 61.2031 40.0312L61.1958 41.7012ZM65.6636 48.1465C64.5356 48.1465 63.6201 47.7925 62.917 47.0845C62.2188 46.3716 61.8696 45.4243 61.8696 44.2427V44.0229C61.8696 43.2319 62.021 42.5264 62.3237 41.9062C62.6313 41.2812 63.061 40.7954 63.6128 40.4487C64.1646 40.1021 64.7798 39.9287 65.4585 39.9287C66.5376 39.9287 67.3701 40.2729 67.9561 40.9614C68.5469 41.6499 68.8423 42.624 68.8423 43.8838V44.6016H63.6641C63.7178 45.2559 63.9351 45.7734 64.3159 46.1543C64.7017 46.5352 65.1851 46.7256 65.7661 46.7256C66.5815 46.7256 67.2456 46.396 67.7583 45.7368L68.7178 46.6523C68.4004 47.126 67.9756 47.4946 67.4434 47.7583C66.916 48.0171 66.3228 48.1465 65.6636 48.1465ZM65.4512 41.3569C64.9629 41.3569 64.5674 41.5278 64.2646 41.8696C63.9668 42.2114 63.7764 42.6875 63.6934 43.2979H67.0845V43.166C67.0454 42.5703 66.8867 42.1211 66.6084 41.8184C66.3301 41.5107 65.9443 41.3569 65.4512 41.3569ZM65.854 36.75H67.8828L65.854 38.9692H64.4258L65.854 36.75ZM73.7202 48.1465C72.5923 48.1465 71.6768 47.7925 70.9736 47.0845C70.2754 46.3716 69.9263 45.4243 69.9263 44.2427V44.0229C69.9263 43.2319 70.0776 42.5264 70.3804 41.9062C70.688 41.2812 71.1177 40.7954 71.6694 40.4487C72.2212 40.1021 72.8364 39.9287 73.5151 39.9287C74.5942 39.9287 75.4268 40.2729 76.0127 40.9614C76.6035 41.6499 76.8989 42.624 76.8989 43.8838V44.6016H71.7207C71.7744 45.2559 71.9917 45.7734 72.3726 46.1543C72.7583 46.5352 73.2417 46.7256 73.8228 46.7256C74.6382 46.7256 75.3022 46.396 75.8149 45.7368L76.7744 46.6523C76.457 47.126 76.0322 47.4946 75.5 47.7583C74.9727 48.0171 74.3794 48.1465 73.7202 48.1465ZM73.5078 41.3569C73.0195 41.3569 72.624 41.5278 72.3213 41.8696C72.0234 42.2114 71.833 42.6875 71.75 43.2979H75.1411V43.166C75.1021 42.5703 74.9434 42.1211 74.665 41.8184C74.3867 41.5107 74.001 41.3569 73.5078 41.3569ZM83.6958 40.0752L83.7471 40.9028C84.3037 40.2534 85.0654 39.9287 86.0322 39.9287C87.0918 39.9287 87.8169 40.334 88.2075 41.1445C88.7837 40.334 89.5942 39.9287 90.6392 39.9287C91.5132 39.9287 92.1626 40.1704 92.5874 40.6538C93.0171 41.1372 93.2368 41.8501 93.2466 42.7925V48H91.4668V42.8438C91.4668 42.3408 91.3569 41.9722 91.1372 41.7378C90.9175 41.5034 90.5537 41.3862 90.0459 41.3862C89.6406 41.3862 89.3086 41.4961 89.0498 41.7158C88.7959 41.9307 88.6177 42.2139 88.5151 42.5654L88.5225 48H86.7427V42.7852C86.7183 41.8525 86.2422 41.3862 85.3145 41.3862C84.6016 41.3862 84.0962 41.6768 83.7983 42.2578V48H82.0186V40.0752H83.6958ZM94.7407 43.9644C94.7407 43.188 94.8945 42.4897 95.2021 41.8696C95.5098 41.2446 95.9419 40.7661 96.4985 40.4341C97.0552 40.0972 97.6948 39.9287 98.4175 39.9287C99.4868 39.9287 100.354 40.2729 101.018 40.9614C101.687 41.6499 102.048 42.563 102.102 43.7007L102.109 44.1182C102.109 44.8994 101.958 45.5977 101.655 46.2129C101.357 46.8281 100.927 47.3042 100.366 47.6411C99.8091 47.978 99.1646 48.1465 98.4321 48.1465C97.314 48.1465 96.418 47.7754 95.7441 47.0332C95.0752 46.2861 94.7407 45.2925 94.7407 44.0522V43.9644ZM96.5205 44.1182C96.5205 44.9336 96.689 45.5732 97.0259 46.0371C97.3628 46.4961 97.8315 46.7256 98.4321 46.7256C99.0327 46.7256 99.499 46.4912 99.8311 46.0225C100.168 45.5537 100.336 44.8677 100.336 43.9644C100.336 43.1636 100.163 42.5288 99.8164 42.0601C99.4746 41.5913 99.0083 41.3569 98.4175 41.3569C97.8364 41.3569 97.375 41.5889 97.0332 42.0527C96.6914 42.5117 96.5205 43.2002 96.5205 44.1182ZM106.269 45.4512L107.88 40.0752H109.777L106.628 49.2012C106.145 50.5342 105.324 51.2007 104.167 51.2007C103.908 51.2007 103.623 51.1567 103.31 51.0688V49.6919L103.647 49.7139C104.096 49.7139 104.433 49.6309 104.658 49.4648C104.887 49.3037 105.068 49.0303 105.2 48.6445L105.456 47.9634L102.673 40.0752H104.592L106.269 45.4512ZM114.194 48.1465C113.066 48.1465 112.15 47.7925 111.447 47.0845C110.749 46.3716 110.4 45.4243 110.4 44.2427V44.0229C110.4 43.2319 110.551 42.5264 110.854 41.9062C111.162 41.2812 111.591 40.7954 112.143 40.4487C112.695 40.1021 113.31 39.9287 113.989 39.9287C115.068 39.9287 115.9 40.2729 116.486 40.9614C117.077 41.6499 117.373 42.624 117.373 43.8838V44.6016H112.194C112.248 45.2559 112.465 45.7734 112.846 46.1543C113.232 46.5352 113.715 46.7256 114.296 46.7256C115.112 46.7256 115.776 46.396 116.289 45.7368L117.248 46.6523C116.931 47.126 116.506 47.4946 115.974 47.7583C115.446 48.0171 114.853 48.1465 114.194 48.1465ZM113.981 41.3569C113.493 41.3569 113.098 41.5278 112.795 41.8696C112.497 42.2114 112.307 42.6875 112.224 43.2979H115.615V43.166C115.576 42.5703 115.417 42.1211 115.139 41.8184C114.86 41.5107 114.475 41.3569 113.981 41.3569ZM120.412 40.0752L120.463 40.9907C121.049 40.2827 121.818 39.9287 122.771 39.9287C124.421 39.9287 125.261 40.8735 125.29 42.7632V48H123.51V42.8657C123.51 42.3628 123.4 41.9917 123.181 41.7524C122.966 41.5083 122.612 41.3862 122.119 41.3862C121.401 41.3862 120.866 41.7109 120.515 42.3604V48H118.735V40.0752H120.412ZM128.762 40.0752L128.813 40.9907C129.399 40.2827 130.168 39.9287 131.12 39.9287C132.771 39.9287 133.61 40.8735 133.64 42.7632V48H131.86V42.8657C131.86 42.3628 131.75 41.9917 131.53 41.7524C131.315 41.5083 130.961 41.3862 130.468 41.3862C129.75 41.3862 129.216 41.7109 128.864 42.3604V48H127.084V40.0752H128.762ZM138.95 48.1465C137.822 48.1465 136.906 47.7925 136.203 47.0845C135.505 46.3716 135.156 45.4243 135.156 44.2427V44.0229C135.156 43.2319 135.307 42.5264 135.61 41.9062C135.917 41.2812 136.347 40.7954 136.899 40.4487C137.451 40.1021 138.066 39.9287 138.745 39.9287C139.824 39.9287 140.656 40.2729 141.242 40.9614C141.833 41.6499 142.128 42.624 142.128 43.8838V44.6016H136.95C137.004 45.2559 137.221 45.7734 137.602 46.1543C137.988 46.5352 138.471 46.7256 139.052 46.7256C139.868 46.7256 140.532 46.396 141.044 45.7368L142.004 46.6523C141.687 47.126 141.262 47.4946 140.729 47.7583C140.202 48.0171 139.609 48.1465 138.95 48.1465ZM138.737 41.3569C138.249 41.3569 137.854 41.5278 137.551 41.8696C137.253 42.2114 137.062 42.6875 136.979 43.2979H140.371V43.166C140.332 42.5703 140.173 42.1211 139.895 41.8184C139.616 41.5107 139.23 41.3569 138.737 41.3569ZM146.918 43.979C146.918 42.7583 147.202 41.7793 147.768 41.042C148.334 40.2998 149.094 39.9287 150.046 39.9287C150.886 39.9287 151.564 40.2217 152.082 40.8076V36.75H153.862V48H152.25L152.163 47.1797C151.63 47.8242 150.92 48.1465 150.031 48.1465C149.104 48.1465 148.352 47.7729 147.775 47.0259C147.204 46.2788 146.918 45.2632 146.918 43.979ZM148.698 44.1328C148.698 44.9385 148.852 45.5684 149.16 46.0225C149.472 46.4717 149.914 46.6963 150.485 46.6963C151.213 46.6963 151.745 46.3716 152.082 45.7222V42.3384C151.755 41.7036 151.228 41.3862 150.5 41.3862C149.924 41.3862 149.479 41.6157 149.167 42.0747C148.854 42.5288 148.698 43.2148 148.698 44.1328ZM159.208 48.1465C158.081 48.1465 157.165 47.7925 156.462 47.0845C155.764 46.3716 155.415 45.4243 155.415 44.2427V44.0229C155.415 43.2319 155.566 42.5264 155.869 41.9062C156.176 41.2812 156.606 40.7954 157.158 40.4487C157.709 40.1021 158.325 39.9287 159.003 39.9287C160.083 39.9287 160.915 40.2729 161.501 40.9614C162.092 41.6499 162.387 42.624 162.387 43.8838V44.6016H157.209C157.263 45.2559 157.48 45.7734 157.861 46.1543C158.247 46.5352 158.73 46.7256 159.311 46.7256C160.126 46.7256 160.791 46.396 161.303 45.7368L162.263 46.6523C161.945 47.126 161.521 47.4946 160.988 47.7583C160.461 48.0171 159.868 48.1465 159.208 48.1465ZM158.996 41.3569C158.508 41.3569 158.112 41.5278 157.81 41.8696C157.512 42.2114 157.321 42.6875 157.238 43.2979H160.629V43.166C160.59 42.5703 160.432 42.1211 160.153 41.8184C159.875 41.5107 159.489 41.3569 158.996 41.3569ZM168.217 45.8467C168.217 45.5293 168.085 45.2876 167.822 45.1216C167.563 44.9556 167.131 44.8091 166.525 44.6821C165.92 44.5552 165.415 44.394 165.009 44.1987C164.121 43.769 163.676 43.1465 163.676 42.3311C163.676 41.6475 163.964 41.0762 164.541 40.6172C165.117 40.1582 165.849 39.9287 166.738 39.9287C167.685 39.9287 168.449 40.1631 169.03 40.6318C169.616 41.1006 169.909 41.7085 169.909 42.4556H168.129C168.129 42.1138 168.002 41.8306 167.749 41.606C167.495 41.3765 167.158 41.2617 166.738 41.2617C166.347 41.2617 166.027 41.3521 165.778 41.5327C165.534 41.7134 165.412 41.9551 165.412 42.2578C165.412 42.5312 165.527 42.7437 165.756 42.895C165.986 43.0464 166.45 43.2002 167.148 43.3564C167.846 43.5078 168.393 43.6909 168.789 43.9058C169.189 44.1157 169.484 44.3696 169.675 44.6675C169.87 44.9653 169.968 45.3267 169.968 45.7515C169.968 46.4644 169.672 47.043 169.082 47.4873C168.491 47.9268 167.717 48.1465 166.76 48.1465C166.11 48.1465 165.532 48.0293 165.024 47.7949C164.516 47.5605 164.121 47.2383 163.837 46.8281C163.554 46.418 163.413 45.9761 163.413 45.5024H165.141C165.166 45.9224 165.324 46.2471 165.617 46.4766C165.91 46.7012 166.298 46.8135 166.782 46.8135C167.25 46.8135 167.607 46.7256 167.851 46.5498C168.095 46.3691 168.217 46.1348 168.217 45.8467ZM43.354 69.8467C43.354 69.5293 43.2222 69.2876 42.9585 69.1216C42.6997 68.9556 42.2676 68.8091 41.6621 68.6821C41.0566 68.5552 40.5513 68.394 40.146 68.1987C39.2573 67.769 38.813 67.1465 38.813 66.3311C38.813 65.6475 39.1011 65.0762 39.6772 64.6172C40.2534 64.1582 40.9858 63.9287 41.8745 63.9287C42.8218 63.9287 43.5859 64.1631 44.167 64.6318C44.7529 65.1006 45.0459 65.7085 45.0459 66.4556H43.2661C43.2661 66.1138 43.1392 65.8306 42.8853 65.606C42.6313 65.3765 42.2944 65.2617 41.8745 65.2617C41.4839 65.2617 41.1641 65.3521 40.915 65.5327C40.6709 65.7134 40.5488 65.9551 40.5488 66.2578C40.5488 66.5312 40.6636 66.7437 40.8931 66.895C41.1226 67.0464 41.5864 67.2002 42.2847 67.3564C42.9829 67.5078 43.5298 67.6909 43.9253 67.9058C44.3257 68.1157 44.6211 68.3696 44.8115 68.6675C45.0068 68.9653 45.1045 69.3267 45.1045 69.7515C45.1045 70.4644 44.8091 71.043 44.2183 71.4873C43.6274 71.9268 42.8535 72.1465 41.8965 72.1465C41.2471 72.1465 40.6685 72.0293 40.1606 71.7949C39.6528 71.5605 39.2573 71.2383 38.9741 70.8281C38.6909 70.418 38.5493 69.9761 38.5493 69.5024H40.2778C40.3022 69.9224 40.4609 70.2471 40.7539 70.4766C41.0469 70.7012 41.4351 70.8135 41.9185 70.8135C42.3872 70.8135 42.7437 70.7256 42.9878 70.5498C43.2319 70.3691 43.354 70.1348 43.354 69.8467ZM50.1509 72.1465C49.0229 72.1465 48.1074 71.7925 47.4043 71.0845C46.7061 70.3716 46.3569 69.4243 46.3569 68.2427V68.0229C46.3569 67.2319 46.5083 66.5264 46.811 65.9062C47.1187 65.2812 47.5483 64.7954 48.1001 64.4487C48.6519 64.1021 49.2671 63.9287 49.9458 63.9287C51.0249 63.9287 51.8574 64.2729 52.4434 64.9614C53.0342 65.6499 53.3296 66.624 53.3296 67.8838V68.6016H48.1514C48.2051 69.2559 48.4224 69.7734 48.8032 70.1543C49.189 70.5352 49.6724 70.7256 50.2534 70.7256C51.0688 70.7256 51.7329 70.396 52.2456 69.7368L53.2051 70.6523C52.8877 71.126 52.4629 71.4946 51.9307 71.7583C51.4033 72.0171 50.8101 72.1465 50.1509 72.1465ZM49.9385 65.3569C49.4502 65.3569 49.0547 65.5278 48.752 65.8696C48.4541 66.2114 48.2637 66.6875 48.1807 67.2979H51.5718V67.166C51.5327 66.5703 51.374 66.1211 51.0957 65.8184C50.8174 65.5107 50.4316 65.3569 49.9385 65.3569ZM59.1597 69.8467C59.1597 69.5293 59.0278 69.2876 58.7642 69.1216C58.5054 68.9556 58.0732 68.8091 57.4678 68.6821C56.8623 68.5552 56.3569 68.394 55.9517 68.1987C55.063 67.769 54.6187 67.1465 54.6187 66.3311C54.6187 65.6475 54.9067 65.0762 55.4829 64.6172C56.0591 64.1582 56.7915 63.9287 57.6802 63.9287C58.6274 63.9287 59.3916 64.1631 59.9727 64.6318C60.5586 65.1006 60.8516 65.7085 60.8516 66.4556H59.0718C59.0718 66.1138 58.9448 65.8306 58.6909 65.606C58.437 65.3765 58.1001 65.2617 57.6802 65.2617C57.2896 65.2617 56.9697 65.3521 56.7207 65.5327C56.4766 65.7134 56.3545 65.9551 56.3545 66.2578C56.3545 66.5312 56.4692 66.7437 56.6987 66.895C56.9282 67.0464 57.3921 67.2002 58.0903 67.3564C58.7886 67.5078 59.3354 67.6909 59.731 67.9058C60.1313 68.1157 60.4268 68.3696 60.6172 68.6675C60.8125 68.9653 60.9102 69.3267 60.9102 69.7515C60.9102 70.4644 60.6147 71.043 60.0239 71.4873C59.4331 71.9268 58.6592 72.1465 57.7021 72.1465C57.0527 72.1465 56.4741 72.0293 55.9663 71.7949C55.4585 71.5605 55.063 71.2383 54.7798 70.8281C54.4966 70.418 54.355 69.9761 54.355 69.5024H56.0835C56.1079 69.9224 56.2666 70.2471 56.5596 70.4766C56.8525 70.7012 57.2407 70.8135 57.7241 70.8135C58.1929 70.8135 58.5493 70.7256 58.7935 70.5498C59.0376 70.3691 59.1597 70.1348 59.1597 69.8467ZM66.9087 69.8467C66.9087 69.5293 66.7769 69.2876 66.5132 69.1216C66.2544 68.9556 65.8223 68.8091 65.2168 68.6821C64.6113 68.5552 64.106 68.394 63.7007 68.1987C62.812 67.769 62.3677 67.1465 62.3677 66.3311C62.3677 65.6475 62.6558 65.0762 63.2319 64.6172C63.8081 64.1582 64.5405 63.9287 65.4292 63.9287C66.3765 63.9287 67.1406 64.1631 67.7217 64.6318C68.3076 65.1006 68.6006 65.7085 68.6006 66.4556H66.8208C66.8208 66.1138 66.6938 65.8306 66.4399 65.606C66.186 65.3765 65.8491 65.2617 65.4292 65.2617C65.0386 65.2617 64.7188 65.3521 64.4697 65.5327C64.2256 65.7134 64.1035 65.9551 64.1035 66.2578C64.1035 66.5312 64.2183 66.7437 64.4478 66.895C64.6772 67.0464 65.1411 67.2002 65.8394 67.3564C66.5376 67.5078 67.0845 67.6909 67.48 67.9058C67.8804 68.1157 68.1758 68.3696 68.3662 68.6675C68.5615 68.9653 68.6592 69.3267 68.6592 69.7515C68.6592 70.4644 68.3638 71.043 67.7729 71.4873C67.1821 71.9268 66.4082 72.1465 65.4512 72.1465C64.8018 72.1465 64.2231 72.0293 63.7153 71.7949C63.2075 71.5605 62.812 71.2383 62.5288 70.8281C62.2456 70.418 62.104 69.9761 62.104 69.5024H63.8325C63.8569 69.9224 64.0156 70.2471 64.3086 70.4766C64.6016 70.7012 64.9897 70.8135 65.4731 70.8135C65.9419 70.8135 66.2983 70.7256 66.5425 70.5498C66.7866 70.3691 66.9087 70.1348 66.9087 69.8467ZM72.1089 72H70.3291V64.0752H72.1089V72ZM70.2192 62.0171C70.2192 61.7437 70.3047 61.5166 70.4756 61.3359C70.6514 61.1553 70.9004 61.0649 71.2227 61.0649C71.5449 61.0649 71.7939 61.1553 71.9697 61.3359C72.1455 61.5166 72.2334 61.7437 72.2334 62.0171C72.2334 62.2856 72.1455 62.5103 71.9697 62.6909C71.7939 62.8667 71.5449 62.9546 71.2227 62.9546C70.9004 62.9546 70.6514 62.8667 70.4756 62.6909C70.3047 62.5103 70.2192 62.2856 70.2192 62.0171ZM73.7202 67.9644C73.7202 67.188 73.874 66.4897 74.1816 65.8696C74.4893 65.2446 74.9214 64.7661 75.478 64.4341C76.0347 64.0972 76.6743 63.9287 77.397 63.9287C78.4663 63.9287 79.333 64.2729 79.9971 64.9614C80.666 65.6499 81.0273 66.563 81.0811 67.7007L81.0884 68.1182C81.0884 68.8994 80.937 69.5977 80.6343 70.2129C80.3364 70.8281 79.9067 71.3042 79.3452 71.6411C78.7886 71.978 78.144 72.1465 77.4116 72.1465C76.2935 72.1465 75.3975 71.7754 74.7236 71.0332C74.0547 70.2861 73.7202 69.2925 73.7202 68.0522V67.9644ZM75.5 68.1182C75.5 68.9336 75.6685 69.5732 76.0054 70.0371C76.3423 70.4961 76.811 70.7256 77.4116 70.7256C78.0122 70.7256 78.4785 70.4912 78.8105 70.0225C79.1475 69.5537 79.3159 68.8677 79.3159 67.9644C79.3159 67.1636 79.1426 66.5288 78.7959 66.0601C78.4541 65.5913 77.9878 65.3569 77.397 65.3569C76.8159 65.3569 76.3545 65.5889 76.0127 66.0527C75.6709 66.5117 75.5 67.2002 75.5 68.1182ZM84.2451 64.0752L84.2964 64.9907C84.8823 64.2827 85.6514 63.9287 86.6035 63.9287C88.2539 63.9287 89.0938 64.8735 89.123 66.7632V72H87.3433V66.8657C87.3433 66.3628 87.2334 65.9917 87.0137 65.7524C86.7988 65.5083 86.4448 65.3862 85.9517 65.3862C85.2339 65.3862 84.6992 65.7109 84.3477 66.3604V72H82.5679V64.0752H84.2451ZM95.3853 69.8467C95.3853 69.5293 95.2534 69.2876 94.9897 69.1216C94.731 68.9556 94.2988 68.8091 93.6934 68.6821C93.0879 68.5552 92.5825 68.394 92.1772 68.1987C91.2886 67.769 90.8442 67.1465 90.8442 66.3311C90.8442 65.6475 91.1323 65.0762 91.7085 64.6172C92.2847 64.1582 93.0171 63.9287 93.9058 63.9287C94.853 63.9287 95.6172 64.1631 96.1982 64.6318C96.7842 65.1006 97.0771 65.7085 97.0771 66.4556H95.2974C95.2974 66.1138 95.1704 65.8306 94.9165 65.606C94.6626 65.3765 94.3257 65.2617 93.9058 65.2617C93.5151 65.2617 93.1953 65.3521 92.9463 65.5327C92.7021 65.7134 92.5801 65.9551 92.5801 66.2578C92.5801 66.5312 92.6948 66.7437 92.9243 66.895C93.1538 67.0464 93.6177 67.2002 94.3159 67.3564C95.0142 67.5078 95.561 67.6909 95.9565 67.9058C96.3569 68.1157 96.6523 68.3696 96.8428 68.6675C97.0381 68.9653 97.1357 69.3267 97.1357 69.7515C97.1357 70.4644 96.8403 71.043 96.2495 71.4873C95.6587 71.9268 94.8848 72.1465 93.9277 72.1465C93.2783 72.1465 92.6997 72.0293 92.1919 71.7949C91.6841 71.5605 91.2886 71.2383 91.0054 70.8281C90.7222 70.418 90.5806 69.9761 90.5806 69.5024H92.3091C92.3335 69.9224 92.4922 70.2471 92.7852 70.4766C93.0781 70.7012 93.4663 70.8135 93.9497 70.8135C94.4185 70.8135 94.7749 70.7256 95.019 70.5498C95.2632 70.3691 95.3853 70.1348 95.3853 69.8467Z" fill="white"/>
<path fill-rule="evenodd" clip-rule="evenodd" d="M184 143.861C186.209 143.861 188 142.081 188 139.885C188 137.69 186.209 135.91 184 135.91C181.791 135.91 180 137.69 180 139.885C180 142.081 181.791 143.861 184 143.861Z" fill="white"/>
<path d="M184 146.361C187.575 146.361 190.5 143.476 190.5 139.885C190.5 136.295 187.575 133.41 184 133.41C180.425 133.41 177.5 136.295 177.5 139.885C177.5 143.476 180.425 146.361 184 146.361Z" stroke="white" stroke-opacity="0.198345" stroke-width="5"/>
<rect x="188" y="104" width="39" height="25" fill="white"/>
<path d="M198.605 113.285V114.07H198.488C197.957 114.078 197.533 114.224 197.215 114.508C196.897 114.792 196.708 115.194 196.648 115.715C196.953 115.395 197.342 115.234 197.816 115.234C198.319 115.234 198.715 115.411 199.004 115.766C199.296 116.12 199.441 116.577 199.441 117.137C199.441 117.715 199.271 118.184 198.93 118.543C198.591 118.9 198.146 119.078 197.594 119.078C197.026 119.078 196.565 118.868 196.211 118.449C195.859 118.03 195.684 117.48 195.684 116.801V116.477C195.684 115.479 195.926 114.698 196.41 114.133C196.897 113.568 197.596 113.285 198.508 113.285H198.605ZM197.586 116C197.378 116 197.186 116.059 197.012 116.176C196.84 116.293 196.714 116.449 196.633 116.645V116.934C196.633 117.355 196.721 117.691 196.898 117.941C197.076 118.189 197.305 118.312 197.586 118.312C197.867 118.312 198.09 118.207 198.254 117.996C198.418 117.785 198.5 117.508 198.5 117.164C198.5 116.82 198.417 116.54 198.25 116.324C198.083 116.108 197.862 116 197.586 116ZM203.781 114.812C203.781 115.091 203.71 115.34 203.566 115.559C203.423 115.775 203.228 115.945 202.98 116.07C203.277 116.208 203.505 116.397 203.664 116.637C203.826 116.876 203.906 117.147 203.906 117.449C203.906 117.949 203.737 118.346 203.398 118.641C203.06 118.932 202.609 119.078 202.047 119.078C201.482 119.078 201.029 118.931 200.688 118.637C200.349 118.342 200.18 117.947 200.18 117.449C200.18 117.145 200.26 116.871 200.422 116.629C200.583 116.387 200.81 116.201 201.102 116.07C200.857 115.945 200.663 115.775 200.52 115.559C200.379 115.34 200.309 115.091 200.309 114.812C200.309 114.328 200.465 113.944 200.777 113.66C201.09 113.376 201.512 113.234 202.043 113.234C202.577 113.234 203 113.376 203.312 113.66C203.625 113.944 203.781 114.328 203.781 114.812ZM202.957 117.402C202.957 117.121 202.872 116.895 202.703 116.723C202.536 116.548 202.315 116.461 202.039 116.461C201.763 116.461 201.542 116.547 201.375 116.719C201.211 116.891 201.129 117.118 201.129 117.402C201.129 117.681 201.21 117.904 201.371 118.07C201.535 118.237 201.76 118.32 202.047 118.32C202.333 118.32 202.556 118.24 202.715 118.078C202.876 117.917 202.957 117.691 202.957 117.402ZM202.836 114.848C202.836 114.6 202.764 114.397 202.621 114.238C202.478 114.077 202.285 113.996 202.043 113.996C201.801 113.996 201.609 114.073 201.469 114.227C201.328 114.378 201.258 114.585 201.258 114.848C201.258 115.108 201.328 115.315 201.469 115.469C201.612 115.622 201.805 115.699 202.047 115.699C202.289 115.699 202.48 115.622 202.621 115.469C202.764 115.315 202.836 115.108 202.836 114.848ZM207.691 114.773L207.719 115.215C208.016 114.868 208.422 114.695 208.938 114.695C209.503 114.695 209.889 114.911 210.098 115.344C210.405 114.911 210.837 114.695 211.395 114.695C211.861 114.695 212.207 114.824 212.434 115.082C212.663 115.34 212.78 115.72 212.785 116.223V119H211.836V116.25C211.836 115.982 211.777 115.785 211.66 115.66C211.543 115.535 211.349 115.473 211.078 115.473C210.862 115.473 210.685 115.531 210.547 115.648C210.411 115.763 210.316 115.914 210.262 116.102L210.266 119H209.316V116.219C209.303 115.721 209.049 115.473 208.555 115.473C208.174 115.473 207.905 115.628 207.746 115.938V119H206.797V114.773H207.691ZM214.77 119H213.82V114.773H214.77V119ZM213.762 113.676C213.762 113.53 213.807 113.409 213.898 113.312C213.992 113.216 214.125 113.168 214.297 113.168C214.469 113.168 214.602 113.216 214.695 113.312C214.789 113.409 214.836 113.53 214.836 113.676C214.836 113.819 214.789 113.939 214.695 114.035C214.602 114.129 214.469 114.176 214.297 114.176C214.125 114.176 213.992 114.129 213.898 114.035C213.807 113.939 213.762 113.819 213.762 113.676ZM216.688 114.773L216.715 115.262C217.027 114.884 217.438 114.695 217.945 114.695C218.826 114.695 219.273 115.199 219.289 116.207V119H218.34V116.262C218.34 115.993 218.281 115.796 218.164 115.668C218.049 115.538 217.861 115.473 217.598 115.473C217.215 115.473 216.93 115.646 216.742 115.992V119H215.793V114.773H216.688Z" fill="black"/>
<defs>
<filter id="filter0_d_2_155" x="0" y="0" width="266" height="271" filterUnits="userSpaceOnUse" color-interpolation-filters="sRGB">
<feFlood flood-opacity="0" result="BackgroundImageFix"/>
<feColorMatrix in="SourceAlpha" type="matrix" values="0 0 0 0 0 0 0 0 0 0 0 0 0 0 0 0 0 0 127 0" result="hardAlpha"/>
<feOffset dy="2"/>
<feGaussianBlur stdDeviation="2"/>
<feColorMatrix type="matrix" values="0 0 0 0 0 0 0 0 0 0 0 0 0 0 0 0 0 0 0.0212249 0"/>
<feBlend mode="normal" in2="BackgroundImageFix" result="effect1_dropShadow_2_155"/>
<feBlend mode="normal" in="SourceGraphic" in2="effect1_dropShadow_2_155" result="shape"/>
</filter>
<linearGradient id="paint0_linear_2_155" x1="-47.7754" y1="79.2693" x2="-47.7754" y2="308.704" gradientUnits="userSpaceOnUse">
<stop stop-color="white"/>
<stop offset="1" stop-color="white" stop-opacity="0.106534"/>
</linearGradient>
<linearGradient id="paint1_linear_2_155" x1="309.906" y1="80.0222" x2="-47.7754" y2="80.0222" gradientUnits="userSpaceOnUse">
<stop stop-color="white"/>
<stop offset="0.810441" stop-color="white" stop-opacity="0.403191"/>
</linearGradient>
<clipPath id="clip0_2_155">
<rect width="229" height="24" fill="white" transform="translate(18 225)"/>
</clipPath>
</defs>
</svg>
