<svg width="843" height="328" viewBox="0 0 843 328" fill="none" xmlns="http://www.w3.org/2000/svg">
<g filter="url(#filter0_d_2_156)">
<rect x="4" y="2" width="835" height="320" rx="5" fill="#FBFBFB"/>
</g>
<path d="M47 115H749" stroke="#DEDEDE" stroke-dasharray="2"/>
<path d="M47 185H749" stroke="#DEDEDE" stroke-dasharray="2"/>
<path d="M47 259H749" stroke="#DEDEDE"/>
<g clip-path="url(#clip0_2_156)">
<path d="M58.7646 292H57.1104V284.009L54.6699 284.843V283.441L58.5527 282.013H58.7646V292Z" fill="#9B9EAC"/>
<path d="M137.459 292H130.767V290.858L134.082 287.242C134.561 286.709 134.9 286.265 135.101 285.909C135.306 285.549 135.408 285.189 135.408 284.829C135.408 284.355 135.274 283.972 135.005 283.681C134.741 283.389 134.383 283.243 133.932 283.243C133.394 283.243 132.977 283.407 132.681 283.735C132.384 284.063 132.236 284.512 132.236 285.082H130.575C130.575 284.476 130.712 283.931 130.985 283.448C131.263 282.961 131.658 282.582 132.168 282.313C132.683 282.045 133.275 281.91 133.945 281.91C134.911 281.91 135.673 282.154 136.229 282.642C136.789 283.125 137.069 283.795 137.069 284.651C137.069 285.148 136.928 285.67 136.646 286.217C136.368 286.759 135.91 287.377 135.271 288.069L132.838 290.674H137.459V292Z" fill="#9B9EAC"/>
<path d="M207.688 286.265H208.699C209.21 286.26 209.613 286.128 209.909 285.868C210.21 285.608 210.36 285.232 210.36 284.74C210.36 284.266 210.235 283.899 209.984 283.64C209.738 283.375 209.36 283.243 208.85 283.243C208.403 283.243 208.036 283.373 207.749 283.633C207.462 283.888 207.318 284.223 207.318 284.638H205.657C205.657 284.127 205.792 283.662 206.061 283.243C206.334 282.824 206.712 282.498 207.195 282.266C207.683 282.029 208.228 281.91 208.829 281.91C209.823 281.91 210.602 282.161 211.167 282.662C211.737 283.159 212.021 283.852 212.021 284.74C212.021 285.187 211.878 285.608 211.591 286.005C211.308 286.397 210.941 286.693 210.49 286.894C211.037 287.08 211.452 287.374 211.734 287.775C212.021 288.176 212.165 288.655 212.165 289.211C212.165 290.104 211.857 290.815 211.242 291.344C210.632 291.872 209.827 292.137 208.829 292.137C207.872 292.137 207.088 291.882 206.478 291.371C205.867 290.861 205.562 290.182 205.562 289.334H207.223C207.223 289.771 207.368 290.127 207.66 290.4C207.956 290.674 208.353 290.811 208.85 290.811C209.365 290.811 209.77 290.674 210.066 290.4C210.363 290.127 210.511 289.73 210.511 289.211C210.511 288.687 210.356 288.284 210.046 288.001C209.736 287.718 209.276 287.577 208.665 287.577H207.688V286.265Z" fill="#9B9EAC"/>
<path d="M286.886 288.452H288.123V289.785H286.886V292H285.225V289.785H280.925L280.877 288.773L285.17 282.047H286.886V288.452ZM282.62 288.452H285.225V284.296L285.102 284.515L282.62 288.452Z" fill="#9B9EAC"/>
<path d="M357.211 287.064L357.751 282.047H363.097V283.482H359.132L358.858 285.861C359.319 285.597 359.838 285.465 360.417 285.465C361.365 285.465 362.101 285.768 362.625 286.374C363.154 286.98 363.418 287.796 363.418 288.821C363.418 289.833 363.126 290.64 362.543 291.241C361.96 291.838 361.16 292.137 360.144 292.137C359.232 292.137 358.476 291.879 357.874 291.364C357.277 290.845 356.953 290.161 356.903 289.313H358.51C358.574 289.797 358.747 290.168 359.029 290.428C359.312 290.683 359.681 290.811 360.137 290.811C360.647 290.811 361.044 290.628 361.326 290.264C361.613 289.899 361.757 289.402 361.757 288.773C361.757 288.167 361.6 287.689 361.285 287.338C360.971 286.982 360.538 286.805 359.986 286.805C359.686 286.805 359.43 286.846 359.221 286.928C359.011 287.005 358.783 287.16 358.537 287.393L357.211 287.064Z" fill="#9B9EAC"/>
<path d="M437.435 281.999V283.373H437.229C436.3 283.387 435.557 283.642 435.001 284.139C434.445 284.635 434.115 285.34 434.01 286.251C434.543 285.69 435.224 285.41 436.054 285.41C436.933 285.41 437.626 285.72 438.132 286.34C438.642 286.96 438.897 287.759 438.897 288.739C438.897 289.751 438.599 290.571 438.002 291.2C437.41 291.825 436.63 292.137 435.664 292.137C434.671 292.137 433.864 291.77 433.244 291.036C432.629 290.302 432.321 289.341 432.321 288.151V287.584C432.321 285.839 432.745 284.471 433.593 283.482C434.445 282.493 435.669 281.999 437.264 281.999H437.435ZM435.65 286.75C435.286 286.75 434.951 286.853 434.646 287.058C434.345 287.263 434.124 287.536 433.982 287.878V288.384C433.982 289.122 434.137 289.71 434.447 290.147C434.757 290.58 435.158 290.797 435.65 290.797C436.143 290.797 436.532 290.612 436.819 290.243C437.106 289.874 437.25 289.389 437.25 288.787C437.25 288.186 437.104 287.696 436.812 287.317C436.521 286.939 436.133 286.75 435.65 286.75Z" fill="#9B9EAC"/>
<path d="M513.891 282.97L509.912 292H508.169L512.141 283.38H506.993V282.047H513.891V282.97Z" fill="#9B9EAC"/>
<path d="M590.035 284.672C590.035 285.16 589.91 285.595 589.659 285.978C589.409 286.356 589.067 286.654 588.634 286.873C589.153 287.115 589.552 287.445 589.83 287.864C590.113 288.284 590.254 288.757 590.254 289.286C590.254 290.161 589.958 290.856 589.365 291.371C588.773 291.882 587.984 292.137 587 292.137C586.011 292.137 585.218 291.879 584.621 291.364C584.029 290.849 583.732 290.157 583.732 289.286C583.732 288.753 583.874 288.274 584.156 287.851C584.439 287.427 584.835 287.101 585.346 286.873C584.917 286.654 584.578 286.356 584.327 285.978C584.081 285.595 583.958 285.16 583.958 284.672C583.958 283.824 584.231 283.152 584.778 282.655C585.325 282.159 586.063 281.91 586.993 281.91C587.927 281.91 588.668 282.159 589.215 282.655C589.762 283.152 590.035 283.824 590.035 284.672ZM588.593 289.204C588.593 288.712 588.445 288.315 588.148 288.015C587.857 287.709 587.469 287.557 586.986 287.557C586.503 287.557 586.116 287.707 585.824 288.008C585.537 288.309 585.394 288.707 585.394 289.204C585.394 289.692 585.535 290.081 585.817 290.373C586.104 290.665 586.499 290.811 587 290.811C587.501 290.811 587.891 290.669 588.169 290.387C588.451 290.104 588.593 289.71 588.593 289.204ZM588.381 284.733C588.381 284.3 588.256 283.945 588.005 283.667C587.754 283.384 587.417 283.243 586.993 283.243C586.569 283.243 586.234 283.378 585.988 283.646C585.742 283.911 585.619 284.273 585.619 284.733C585.619 285.189 585.742 285.551 585.988 285.82C586.239 286.089 586.576 286.224 587 286.224C587.424 286.224 587.759 286.089 588.005 285.82C588.256 285.551 588.381 285.189 588.381 284.733Z" fill="#9B9EAC"/>
<path d="M662.977 287.837C662.421 288.425 661.771 288.719 661.028 288.719C660.153 288.719 659.456 288.413 658.937 287.803C658.417 287.188 658.157 286.381 658.157 285.383C658.157 284.727 658.289 284.132 658.554 283.599C658.818 283.065 659.194 282.651 659.682 282.354C660.169 282.058 660.734 281.91 661.377 281.91C662.38 281.91 663.175 282.284 663.763 283.031C664.351 283.779 664.645 284.779 664.645 286.032V286.497C664.645 288.293 664.239 289.662 663.428 290.605C662.617 291.549 661.407 292.027 659.798 292.041H659.6V290.667H659.839C660.819 290.653 661.571 290.419 662.095 289.963C662.619 289.503 662.913 288.794 662.977 287.837ZM661.377 287.42C661.71 287.42 662.022 287.324 662.313 287.133C662.605 286.941 662.831 286.677 662.99 286.34V285.69C662.99 284.957 662.84 284.367 662.539 283.92C662.238 283.473 661.849 283.25 661.37 283.25C660.892 283.25 660.509 283.448 660.222 283.845C659.939 284.237 659.798 284.733 659.798 285.335C659.798 285.959 659.941 286.463 660.229 286.846C660.516 287.229 660.898 287.42 661.377 287.42Z" fill="#9B9EAC"/>
<path d="M735.286 292H733.632V284.009L731.191 284.843V283.441L735.074 282.013H735.286V292ZM745.232 287.81C745.232 289.241 744.964 290.321 744.426 291.05C743.893 291.774 743.079 292.137 741.985 292.137C740.91 292.137 740.099 291.784 739.552 291.077C739.009 290.366 738.731 289.316 738.718 287.926V286.203C738.718 284.772 738.984 283.699 739.518 282.983C740.055 282.268 740.873 281.91 741.972 281.91C743.061 281.91 743.872 282.259 744.405 282.956C744.943 283.653 745.219 284.697 745.232 286.087V287.81ZM743.571 285.95C743.571 285.016 743.444 284.332 743.188 283.899C742.933 283.462 742.528 283.243 741.972 283.243C741.429 283.243 741.031 283.451 740.775 283.865C740.52 284.275 740.386 284.918 740.372 285.793V288.049C740.372 288.979 740.502 289.671 740.762 290.127C741.021 290.583 741.429 290.811 741.985 290.811C742.519 290.811 742.913 290.601 743.168 290.182C743.423 289.758 743.558 289.097 743.571 288.199V285.95Z" fill="#9B9EAC"/>
</g>
<path d="M47 212.5C47 210.567 48.567 209 50.5 209C52.433 209 54 210.567 54 212.5V259H47V212.5Z" fill="#282D30"/>
<path d="M62 181C62 179.343 63.3431 178 65 178H66C67.6569 178 69 179.343 69 181V259H62V181Z" fill="#E60000"/>
<path d="M123 185C123 183.343 124.343 182 126 182H127C128.657 182 130 183.343 130 185V259H123V185Z" fill="#282D30"/>
<path d="M138 156C138 154.343 139.343 153 141 153H142C143.657 153 145 154.343 145 156V259H138V156Z" fill="#E60000"/>
<rect x="178" y="114" width="56" height="145" fill="#C4C4C4" fill-opacity="0.5"/>
<path d="M198 199C198 197.343 199.343 196 201 196H202C203.657 196 205 197.343 205 199V259H198V199Z" fill="#282D30"/>
<path d="M213 136C213 134.343 214.343 133 216 133H217C218.657 133 220 134.343 220 136V259H213V136Z" fill="#E60000"/>
<path d="M274 208C274 206.343 275.343 205 277 205H278C279.657 205 281 206.343 281 208V259H274V208Z" fill="#282D30"/>
<path d="M289 181C289 179.343 290.343 178 292 178H293C294.657 178 296 179.343 296 181V259H289V181Z" fill="#E60000"/>
<path d="M349 199C349 197.343 350.343 196 352 196H353C354.657 196 356 197.343 356 199V259H349V199Z" fill="#282D30"/>
<path d="M364 186C364 184.343 365.343 183 367 183H368C369.657 183 371 184.343 371 186V259H364V186Z" fill="#E60000"/>
<path d="M425 199C425 197.343 426.343 196 428 196H429C430.657 196 432 197.343 432 199V259H425V199Z" fill="#282D30"/>
<path d="M440 204C440 202.343 441.343 201 443 201H444C445.657 201 447 202.343 447 204V259H440V204Z" fill="#E60000"/>
<path d="M500 215C500 213.343 501.343 212 503 212H504C505.657 212 507 213.343 507 215V259H500V215Z" fill="#282D30"/>
<path d="M515 191C515 189.343 516.343 188 518 188H519C520.657 188 522 189.343 522 191V259H515V191Z" fill="#E60000"/>
<path d="M576 171C576 169.343 577.343 168 579 168H580C581.657 168 583 169.343 583 171V259H576V171Z" fill="#282D30"/>
<path d="M591 146C591 144.343 592.343 143 594 143H595C596.657 143 598 144.343 598 146V259H591V146Z" fill="#E60000"/>
<path d="M651 211C651 209.343 652.343 208 654 208H655C656.657 208 658 209.343 658 211V259H651V211Z" fill="#282D30"/>
<path d="M666 171.5C666 169.567 667.567 168 669.5 168C671.433 168 673 169.567 673 171.5V259H666V171.5Z" fill="#E60000"/>
<path d="M727 215.5C727 213.567 728.567 212 730.5 212C732.433 212 734 213.567 734 215.5V259H727V215.5Z" fill="#282D30"/>
<path d="M742 156.5C742 154.567 743.567 153 745.5 153C747.433 153 749 154.567 749 156.5V259H742V156.5Z" fill="#E60000"/>
<path d="M799.499 251.999V253.373H799.294C798.364 253.387 797.621 253.642 797.065 254.139C796.509 254.635 796.179 255.34 796.074 256.251C796.607 255.69 797.289 255.41 798.118 255.41C798.998 255.41 799.69 255.72 800.196 256.34C800.707 256.96 800.962 257.759 800.962 258.739C800.962 259.751 800.663 260.571 800.066 261.2C799.474 261.825 798.695 262.137 797.729 262.137C796.735 262.137 795.928 261.77 795.309 261.036C794.693 260.302 794.386 259.341 794.386 258.151V257.584C794.386 255.839 794.81 254.471 795.657 253.482C796.509 252.493 797.733 251.999 799.328 251.999H799.499ZM797.715 256.75C797.35 256.75 797.015 256.853 796.71 257.058C796.409 257.263 796.188 257.536 796.047 257.878V258.384C796.047 259.122 796.202 259.71 796.512 260.147C796.822 260.58 797.223 260.797 797.715 260.797C798.207 260.797 798.597 260.612 798.884 260.243C799.171 259.874 799.314 259.389 799.314 258.787C799.314 258.186 799.169 257.696 798.877 257.317C798.585 256.939 798.198 256.75 797.715 256.75ZM806.998 257.837C806.442 258.425 805.793 258.719 805.05 258.719C804.175 258.719 803.478 258.413 802.958 257.803C802.438 257.188 802.179 256.381 802.179 255.383C802.179 254.727 802.311 254.132 802.575 253.599C802.84 253.065 803.215 252.651 803.703 252.354C804.191 252.058 804.756 251.91 805.398 251.91C806.401 251.91 807.196 252.284 807.784 253.031C808.372 253.779 808.666 254.779 808.666 256.032V256.497C808.666 258.293 808.26 259.662 807.449 260.605C806.638 261.549 805.428 262.027 803.819 262.041H803.621V260.667H803.86C804.84 260.653 805.592 260.419 806.116 259.963C806.64 259.503 806.934 258.794 806.998 257.837ZM805.398 257.42C805.731 257.42 806.043 257.324 806.335 257.133C806.627 256.941 806.852 256.677 807.012 256.34V255.69C807.012 254.957 806.861 254.367 806.561 253.92C806.26 253.473 805.87 253.25 805.392 253.25C804.913 253.25 804.53 253.448 804.243 253.845C803.961 254.237 803.819 254.733 803.819 255.335C803.819 255.959 803.963 256.463 804.25 256.846C804.537 257.229 804.92 257.42 805.398 257.42Z" fill="#9B9EAC"/>
<path d="M801.455 178.97L797.477 188H795.733L799.705 179.38H794.558V178.047H801.455V178.97ZM809.275 183.81C809.275 185.241 809.007 186.321 808.469 187.05C807.936 187.774 807.122 188.137 806.028 188.137C804.953 188.137 804.142 187.784 803.595 187.077C803.052 186.366 802.774 185.316 802.761 183.926V182.203C802.761 180.772 803.027 179.699 803.561 178.983C804.098 178.268 804.916 177.91 806.015 177.91C807.104 177.91 807.915 178.259 808.448 178.956C808.986 179.653 809.262 180.697 809.275 182.087V183.81ZM807.614 181.95C807.614 181.016 807.487 180.332 807.231 179.899C806.976 179.462 806.571 179.243 806.015 179.243C805.472 179.243 805.074 179.451 804.818 179.865C804.563 180.275 804.429 180.918 804.415 181.793V184.049C804.415 184.979 804.545 185.671 804.805 186.127C805.064 186.583 805.472 186.811 806.028 186.811C806.562 186.811 806.956 186.601 807.211 186.182C807.466 185.758 807.601 185.097 807.614 184.199V181.95Z" fill="#9B9EAC"/>
<path d="M800.955 104.97L796.977 114H795.233L799.205 105.38H794.058V104.047H800.955V104.97ZM806.786 114H805.132V106.009L802.691 106.843V105.441L806.574 104.013H806.786V114Z" fill="#9B9EAC"/>
<path d="M556.741 38.3018V42H555.012V32.0469H558.819C559.931 32.0469 560.813 32.3363 561.465 32.915C562.121 33.4938 562.449 34.2594 562.449 35.2119C562.449 36.1872 562.128 36.946 561.485 37.4883C560.847 38.0306 559.952 38.3018 558.799 38.3018H556.741ZM556.741 36.9141H558.819C559.435 36.9141 559.904 36.7705 560.228 36.4834C560.551 36.1917 560.713 35.7725 560.713 35.2256C560.713 34.6878 560.549 34.2594 560.221 33.9404C559.893 33.6169 559.441 33.4505 558.867 33.4414H556.741V36.9141ZM563.399 38.2334C563.399 37.5088 563.543 36.8571 563.83 36.2783C564.117 35.695 564.521 35.2484 565.04 34.9385C565.56 34.624 566.157 34.4668 566.831 34.4668C567.829 34.4668 568.638 34.7881 569.258 35.4307C569.882 36.0732 570.219 36.9255 570.27 37.9873L570.276 38.377C570.276 39.1061 570.135 39.7578 569.853 40.332C569.575 40.9062 569.174 41.3506 568.649 41.665C568.13 41.9795 567.528 42.1367 566.845 42.1367C565.801 42.1367 564.965 41.7904 564.336 41.0977C563.712 40.4004 563.399 39.473 563.399 38.3154V38.2334ZM565.061 38.377C565.061 39.138 565.218 39.735 565.532 40.168C565.847 40.5964 566.284 40.8105 566.845 40.8105C567.405 40.8105 567.84 40.5918 568.15 40.1543C568.465 39.7168 568.622 39.0765 568.622 38.2334C568.622 37.486 568.46 36.8936 568.137 36.4561C567.818 36.0186 567.382 35.7998 566.831 35.7998C566.289 35.7998 565.858 36.0163 565.539 36.4492C565.22 36.8776 565.061 37.5202 565.061 38.377ZM573.448 42H571.787V34.6035H573.448V42ZM571.685 32.6826C571.685 32.4274 571.764 32.2155 571.924 32.0469C572.088 31.8783 572.32 31.7939 572.621 31.7939C572.922 31.7939 573.154 31.8783 573.318 32.0469C573.482 32.2155 573.564 32.4274 573.564 32.6826C573.564 32.9333 573.482 33.1429 573.318 33.3115C573.154 33.4756 572.922 33.5576 572.621 33.5576C572.32 33.5576 572.088 33.4756 571.924 33.3115C571.764 33.1429 571.685 32.9333 571.685 32.6826ZM574.952 38.2471C574.952 37.1077 575.216 36.194 575.745 35.5059C576.274 34.8132 576.982 34.4668 577.871 34.4668C578.655 34.4668 579.288 34.7402 579.771 35.2871V31.5H581.433V42H579.929L579.847 41.2344C579.35 41.8359 578.687 42.1367 577.857 42.1367C576.992 42.1367 576.29 41.7881 575.752 41.0908C575.219 40.3936 574.952 39.4456 574.952 38.2471ZM576.613 38.3906C576.613 39.1426 576.757 39.7305 577.044 40.1543C577.336 40.5736 577.748 40.7832 578.281 40.7832C578.96 40.7832 579.457 40.4801 579.771 39.874V36.7158C579.466 36.1234 578.974 35.8271 578.295 35.8271C577.757 35.8271 577.342 36.0413 577.051 36.4697C576.759 36.8936 576.613 37.5339 576.613 38.3906ZM587.312 39.9902C587.312 39.694 587.188 39.4684 586.942 39.3135C586.701 39.1585 586.298 39.0218 585.732 38.9033C585.167 38.7848 584.696 38.6344 584.317 38.4521C583.488 38.0511 583.073 37.4701 583.073 36.709C583.073 36.071 583.342 35.5378 583.88 35.1094C584.418 34.681 585.101 34.4668 585.931 34.4668C586.815 34.4668 587.528 34.6855 588.07 35.123C588.617 35.5605 588.891 36.1279 588.891 36.8252H587.229C587.229 36.5062 587.111 36.2419 586.874 36.0322C586.637 35.818 586.323 35.7109 585.931 35.7109C585.566 35.7109 585.268 35.7952 585.035 35.9639C584.807 36.1325 584.693 36.3581 584.693 36.6406C584.693 36.8958 584.8 37.0941 585.015 37.2354C585.229 37.3766 585.662 37.5202 586.313 37.666C586.965 37.8073 587.476 37.9782 587.845 38.1787C588.218 38.3747 588.494 38.6117 588.672 38.8896C588.854 39.1676 588.945 39.5049 588.945 39.9014C588.945 40.5667 588.67 41.1068 588.118 41.5215C587.567 41.9316 586.844 42.1367 585.951 42.1367C585.345 42.1367 584.805 42.0273 584.331 41.8086C583.857 41.5898 583.488 41.2891 583.224 40.9062C582.959 40.5234 582.827 40.111 582.827 39.6689H584.44C584.463 40.0609 584.611 40.3639 584.885 40.5781C585.158 40.7878 585.521 40.8926 585.972 40.8926C586.409 40.8926 586.742 40.8105 586.97 40.6465C587.198 40.4779 587.312 40.2591 587.312 39.9902ZM593.908 37.9531C593.908 36.9004 594.049 35.9023 594.332 34.959C594.615 34.0111 595.029 33.1657 595.576 32.4229C596.123 31.6755 596.702 31.1514 597.312 30.8506L597.641 31.8213C596.998 32.3089 596.476 33.054 596.075 34.0566C595.679 35.0547 595.462 36.1986 595.426 37.4883L595.419 38.0762C595.419 39.457 595.613 40.6898 596 41.7744C596.392 42.8545 596.939 43.6771 597.641 44.2422L597.312 45.165C596.702 44.8643 596.121 44.3379 595.569 43.5859C595.022 42.8385 594.608 41.9954 594.325 41.0566C594.047 40.1133 593.908 39.0788 593.908 37.9531ZM601.168 38.8281L600.43 39.5869V42H598.769V31.5H600.43V37.5566L600.949 36.9072L602.993 34.6035H604.989L602.241 37.6865L605.283 42H603.362L601.168 38.8281ZM605.652 38.2471C605.652 37.0986 605.921 36.1826 606.459 35.499C607.001 34.8109 607.719 34.4668 608.612 34.4668C609.455 34.4668 610.118 34.7607 610.602 35.3486L610.677 34.6035H612.174V41.7744C612.174 42.7451 611.871 43.5107 611.265 44.0713C610.663 44.6318 609.85 44.9121 608.824 44.9121C608.282 44.9121 607.751 44.7982 607.231 44.5703C606.716 44.347 606.325 44.0531 606.056 43.6885L606.842 42.6904C607.352 43.2965 607.981 43.5996 608.729 43.5996C609.28 43.5996 609.715 43.4492 610.034 43.1484C610.353 42.8522 610.513 42.4147 610.513 41.8359V41.3369C610.034 41.8701 609.396 42.1367 608.599 42.1367C607.733 42.1367 607.024 41.7926 606.473 41.1045C605.926 40.4163 605.652 39.4639 605.652 38.2471ZM607.307 38.3906C607.307 39.1335 607.457 39.7191 607.758 40.1475C608.063 40.5713 608.485 40.7832 609.022 40.7832C609.692 40.7832 610.189 40.4961 610.513 39.9219V36.668C610.198 36.1074 609.706 35.8271 609.036 35.8271C608.489 35.8271 608.063 36.0436 607.758 36.4766C607.457 36.9095 607.307 37.5475 607.307 38.3906ZM617.089 38.0625C617.089 39.0742 616.95 40.0518 616.672 40.9951C616.394 41.9339 615.972 42.7884 615.407 43.5586C614.842 44.3333 614.252 44.8688 613.637 45.165L613.309 44.2422C613.992 43.7135 614.532 42.9069 614.929 41.8223C615.33 40.7331 615.53 39.4912 615.53 38.0967V37.9395C615.53 36.6725 615.357 35.5195 615.011 34.4805C614.664 33.4368 614.168 32.6006 613.521 31.9717L613.309 31.7803L613.637 30.8506C614.22 31.1331 614.785 31.6344 615.332 32.3545C615.879 33.0745 616.298 33.8812 616.59 34.7744C616.882 35.6631 617.046 36.5814 617.082 37.5293L617.089 38.0625Z" fill="#74798C"/>
<path fill-rule="evenodd" clip-rule="evenodd" d="M540 42C542.209 42 544 40.2091 544 38C544 35.7909 542.209 34 540 34C537.791 34 536 35.7909 536 38C536 40.2091 537.791 42 540 42Z" fill="#282D30"/>
<path d="M678.606 39.7598C678.506 40.8216 678.114 41.651 677.431 42.248C676.747 42.8405 675.838 43.1367 674.703 43.1367C673.91 43.1367 673.211 42.9499 672.604 42.5762C672.003 42.1979 671.538 41.6624 671.21 40.9697C670.882 40.277 670.711 39.4727 670.697 38.5566V37.627C670.697 36.6882 670.864 35.861 671.196 35.1455C671.529 34.43 672.005 33.8786 672.625 33.4912C673.249 33.1038 673.969 32.9102 674.785 32.9102C675.883 32.9102 676.768 33.2087 677.438 33.8057C678.107 34.4027 678.497 35.2458 678.606 36.335H676.884C676.802 35.6195 676.592 35.1045 676.255 34.79C675.922 34.471 675.432 34.3115 674.785 34.3115C674.033 34.3115 673.454 34.5872 673.049 35.1387C672.648 35.6855 672.443 36.4899 672.434 37.5518V38.4336C672.434 39.5091 672.625 40.3294 673.008 40.8945C673.395 41.4596 673.96 41.7422 674.703 41.7422C675.382 41.7422 675.893 41.5895 676.234 41.2842C676.576 40.9788 676.793 40.4707 676.884 39.7598H678.606ZM684.417 43C684.344 42.8587 684.28 42.6286 684.226 42.3096C683.697 42.861 683.05 43.1367 682.284 43.1367C681.541 43.1367 680.935 42.9248 680.466 42.501C679.996 42.0771 679.762 41.5531 679.762 40.9287C679.762 40.1403 680.053 39.5365 680.637 39.1172C681.225 38.6934 682.063 38.4814 683.152 38.4814H684.171V37.9961C684.171 37.6133 684.064 37.3079 683.85 37.0801C683.635 36.8477 683.31 36.7314 682.872 36.7314C682.494 36.7314 682.184 36.8271 681.942 37.0186C681.701 37.2054 681.58 37.4447 681.58 37.7363H679.919C679.919 37.3307 680.053 36.9525 680.322 36.6016C680.591 36.2461 680.956 35.9681 681.416 35.7676C681.881 35.5671 682.398 35.4668 682.968 35.4668C683.834 35.4668 684.524 35.6855 685.039 36.123C685.554 36.556 685.818 37.1667 685.832 37.9551V41.291C685.832 41.9564 685.925 42.4873 686.112 42.8838V43H684.417ZM682.592 41.8037C682.92 41.8037 683.228 41.724 683.515 41.5645C683.806 41.4049 684.025 41.1908 684.171 40.9219V39.5273H683.275C682.66 39.5273 682.198 39.6344 681.888 39.8486C681.578 40.0628 681.423 40.3659 681.423 40.7578C681.423 41.0768 681.528 41.332 681.737 41.5234C681.951 41.7103 682.236 41.8037 682.592 41.8037ZM689.339 43H687.678V32.5H689.339V43ZM690.843 39.2334C690.843 38.5088 690.986 37.8571 691.273 37.2783C691.561 36.695 691.964 36.2484 692.483 35.9385C693.003 35.624 693.6 35.4668 694.274 35.4668C695.272 35.4668 696.081 35.7881 696.701 36.4307C697.326 37.0732 697.663 37.9255 697.713 38.9873L697.72 39.377C697.72 40.1061 697.578 40.7578 697.296 41.332C697.018 41.9062 696.617 42.3506 696.093 42.665C695.573 42.9795 694.972 43.1367 694.288 43.1367C693.244 43.1367 692.408 42.7904 691.779 42.0977C691.155 41.4004 690.843 40.473 690.843 39.3154V39.2334ZM692.504 39.377C692.504 40.138 692.661 40.735 692.976 41.168C693.29 41.5964 693.728 41.8105 694.288 41.8105C694.849 41.8105 695.284 41.5918 695.594 41.1543C695.908 40.7168 696.065 40.0765 696.065 39.2334C696.065 38.486 695.904 37.8936 695.58 37.4561C695.261 37.0186 694.826 36.7998 694.274 36.7998C693.732 36.7998 693.301 37.0163 692.982 37.4492C692.663 37.8776 692.504 38.5202 692.504 39.377ZM702.997 37.1211C702.778 37.0846 702.553 37.0664 702.32 37.0664C701.559 37.0664 701.047 37.3581 700.782 37.9414V43H699.121V35.6035H700.707L700.748 36.4307C701.149 35.7881 701.705 35.4668 702.416 35.4668C702.653 35.4668 702.849 35.4987 703.004 35.5625L702.997 37.1211ZM705.813 43H704.152V35.6035H705.813V43ZM704.05 33.6826C704.05 33.4274 704.13 33.2155 704.289 33.0469C704.453 32.8783 704.686 32.7939 704.986 32.7939C705.287 32.7939 705.52 32.8783 705.684 33.0469C705.848 33.2155 705.93 33.4274 705.93 33.6826C705.93 33.9333 705.848 34.1429 705.684 34.3115C705.52 34.4756 705.287 34.5576 704.986 34.5576C704.686 34.5576 704.453 34.4756 704.289 34.3115C704.13 34.1429 704.05 33.9333 704.05 33.6826ZM710.886 43.1367C709.833 43.1367 708.979 42.8063 708.322 42.1455C707.671 41.4801 707.345 40.596 707.345 39.4932V39.2881C707.345 38.5498 707.486 37.8913 707.769 37.3125C708.056 36.7292 708.457 36.2757 708.972 35.9521C709.487 35.6286 710.061 35.4668 710.694 35.4668C711.701 35.4668 712.479 35.7881 713.025 36.4307C713.577 37.0732 713.853 37.9824 713.853 39.1582V39.8281H709.02C709.07 40.4388 709.272 40.9219 709.628 41.2773C709.988 41.6328 710.439 41.8105 710.981 41.8105C711.743 41.8105 712.362 41.5029 712.841 40.8877L713.736 41.7422C713.44 42.1842 713.044 42.5283 712.547 42.7744C712.055 43.016 711.501 43.1367 710.886 43.1367ZM710.688 36.7998C710.232 36.7998 709.863 36.9593 709.58 37.2783C709.302 37.5973 709.124 38.0417 709.047 38.6113H712.212V38.4883C712.175 37.9323 712.027 37.513 711.768 37.2305C711.508 36.9434 711.148 36.7998 710.688 36.7998ZM719.294 40.9902C719.294 40.694 719.171 40.4684 718.925 40.3135C718.683 40.1585 718.28 40.0218 717.715 39.9033C717.15 39.7848 716.678 39.6344 716.3 39.4521C715.47 39.0511 715.056 38.4701 715.056 37.709C715.056 37.071 715.325 36.5378 715.862 36.1094C716.4 35.681 717.084 35.4668 717.913 35.4668C718.797 35.4668 719.51 35.6855 720.053 36.123C720.6 36.5605 720.873 37.1279 720.873 37.8252H719.212C719.212 37.5062 719.093 37.2419 718.856 37.0322C718.619 36.818 718.305 36.7109 717.913 36.7109C717.549 36.7109 717.25 36.7952 717.018 36.9639C716.79 37.1325 716.676 37.3581 716.676 37.6406C716.676 37.8958 716.783 38.0941 716.997 38.2354C717.211 38.3766 717.644 38.5202 718.296 38.666C718.948 38.8073 719.458 38.9782 719.827 39.1787C720.201 39.3747 720.477 39.6117 720.654 39.8896C720.837 40.1676 720.928 40.5049 720.928 40.9014C720.928 41.5667 720.652 42.1068 720.101 42.5215C719.549 42.9316 718.827 43.1367 717.934 43.1367C717.327 43.1367 716.787 43.0273 716.313 42.8086C715.84 42.5898 715.47 42.2891 715.206 41.9062C714.942 41.5234 714.81 41.111 714.81 40.6689H716.423C716.446 41.0609 716.594 41.3639 716.867 41.5781C717.141 41.7878 717.503 41.8926 717.954 41.8926C718.392 41.8926 718.724 41.8105 718.952 41.6465C719.18 41.4779 719.294 41.2591 719.294 40.9902ZM732.357 39.377C732.357 40.5254 732.1 41.4391 731.585 42.1182C731.075 42.7972 730.37 43.1367 729.473 43.1367C728.607 43.1367 727.932 42.8245 727.449 42.2002L727.367 43H725.863V32.5H727.524V36.3145C728.003 35.7493 728.648 35.4668 729.459 35.4668C730.361 35.4668 731.07 35.8018 731.585 36.4717C732.1 37.1416 732.357 38.0781 732.357 39.2812V39.377ZM730.696 39.2334C730.696 38.4313 730.555 37.8298 730.272 37.4287C729.99 37.0277 729.58 36.8271 729.042 36.8271C728.322 36.8271 727.816 37.1416 727.524 37.7705V40.8193C727.821 41.4619 728.331 41.7832 729.056 41.7832C729.575 41.7832 729.976 41.5895 730.259 41.2021C730.541 40.8148 730.687 40.2292 730.696 39.4453V39.2334ZM737.628 37.1211C737.409 37.0846 737.184 37.0664 736.951 37.0664C736.19 37.0664 735.677 37.3581 735.413 37.9414V43H733.752V35.6035H735.338L735.379 36.4307C735.78 35.7881 736.336 35.4668 737.047 35.4668C737.284 35.4668 737.48 35.4987 737.635 35.5625L737.628 37.1211ZM743.158 42.2754C742.671 42.8496 741.978 43.1367 741.08 43.1367C740.278 43.1367 739.67 42.902 739.255 42.4326C738.845 41.9632 738.64 41.2842 738.64 40.3955V35.6035H740.301V40.375C740.301 41.3138 740.69 41.7832 741.47 41.7832C742.276 41.7832 742.821 41.4938 743.104 40.915V35.6035H744.765V43H743.199L743.158 42.2754ZM744.074 34.3936V34.4688H742.741L741.716 33.4023L740.697 34.4688H739.378V34.3799L741.23 32.4932H742.208L744.074 34.3936ZM748.224 43H746.562V32.5H748.224V43ZM753.296 43.1367C752.243 43.1367 751.389 42.8063 750.732 42.1455C750.081 41.4801 749.755 40.596 749.755 39.4932V39.2881C749.755 38.5498 749.896 37.8913 750.179 37.3125C750.466 36.7292 750.867 36.2757 751.382 35.9521C751.897 35.6286 752.471 35.4668 753.104 35.4668C754.112 35.4668 754.889 35.7881 755.436 36.4307C755.987 37.0732 756.263 37.9824 756.263 39.1582V39.8281H751.43C751.48 40.4388 751.683 40.9219 752.038 41.2773C752.398 41.6328 752.849 41.8105 753.392 41.8105C754.153 41.8105 754.772 41.5029 755.251 40.8877L756.146 41.7422C755.85 42.1842 755.454 42.5283 754.957 42.7744C754.465 43.016 753.911 43.1367 753.296 43.1367ZM753.098 36.7998C752.642 36.7998 752.273 36.9593 751.99 37.2783C751.712 37.5973 751.535 38.0417 751.457 38.6113H754.622V38.4883C754.586 37.9323 754.438 37.513 754.178 37.2305C753.918 36.9434 753.558 36.7998 753.098 36.7998ZM753.474 32.5H755.367L753.474 34.5713H752.141L753.474 32.5ZM760.815 43.1367C759.763 43.1367 758.908 42.8063 758.252 42.1455C757.6 41.4801 757.274 40.596 757.274 39.4932V39.2881C757.274 38.5498 757.416 37.8913 757.698 37.3125C757.985 36.7292 758.386 36.2757 758.901 35.9521C759.416 35.6286 759.991 35.4668 760.624 35.4668C761.631 35.4668 762.408 35.7881 762.955 36.4307C763.507 37.0732 763.782 37.9824 763.782 39.1582V39.8281H758.949C758.999 40.4388 759.202 40.9219 759.558 41.2773C759.918 41.6328 760.369 41.8105 760.911 41.8105C761.672 41.8105 762.292 41.5029 762.771 40.8877L763.666 41.7422C763.37 42.1842 762.973 42.5283 762.477 42.7744C761.984 43.016 761.431 43.1367 760.815 43.1367ZM760.617 36.7998C760.161 36.7998 759.792 36.9593 759.51 37.2783C759.232 37.5973 759.054 38.0417 758.977 38.6113H762.142V38.4883C762.105 37.9323 761.957 37.513 761.697 37.2305C761.438 36.9434 761.077 36.7998 760.617 36.7998ZM769.224 40.9902C769.224 40.694 769.101 40.4684 768.854 40.3135C768.613 40.1585 768.21 40.0218 767.645 39.9033C767.079 39.7848 766.608 39.6344 766.229 39.4521C765.4 39.0511 764.985 38.4701 764.985 37.709C764.985 37.071 765.254 36.5378 765.792 36.1094C766.33 35.681 767.013 35.4668 767.843 35.4668C768.727 35.4668 769.44 35.6855 769.982 36.123C770.529 36.5605 770.803 37.1279 770.803 37.8252H769.142C769.142 37.5062 769.023 37.2419 768.786 37.0322C768.549 36.818 768.235 36.7109 767.843 36.7109C767.478 36.7109 767.18 36.7952 766.947 36.9639C766.719 37.1325 766.605 37.3581 766.605 37.6406C766.605 37.8958 766.713 38.0941 766.927 38.2354C767.141 38.3766 767.574 38.5202 768.226 38.666C768.877 38.8073 769.388 38.9782 769.757 39.1787C770.131 39.3747 770.406 39.6117 770.584 39.8896C770.766 40.1676 770.857 40.5049 770.857 40.9014C770.857 41.5667 770.582 42.1068 770.03 42.5215C769.479 42.9316 768.757 43.1367 767.863 43.1367C767.257 43.1367 766.717 43.0273 766.243 42.8086C765.769 42.5898 765.4 42.2891 765.136 41.9062C764.871 41.5234 764.739 41.111 764.739 40.6689H766.353C766.375 41.0609 766.523 41.3639 766.797 41.5781C767.07 41.7878 767.433 41.8926 767.884 41.8926C768.321 41.8926 768.654 41.8105 768.882 41.6465C769.11 41.4779 769.224 41.2591 769.224 40.9902ZM775.82 38.9531C775.82 37.9004 775.962 36.9023 776.244 35.959C776.527 35.0111 776.941 34.1657 777.488 33.4229C778.035 32.6755 778.614 32.1514 779.225 31.8506L779.553 32.8213C778.91 33.3089 778.388 34.054 777.987 35.0566C777.591 36.0547 777.374 37.1986 777.338 38.4883L777.331 39.0762C777.331 40.457 777.525 41.6898 777.912 42.7744C778.304 43.8545 778.851 44.6771 779.553 45.2422L779.225 46.165C778.614 45.8643 778.033 45.3379 777.481 44.5859C776.935 43.8385 776.52 42.9954 776.237 42.0566C775.959 41.1133 775.82 40.0788 775.82 38.9531ZM783.08 39.8281L782.342 40.5869V43H780.681V32.5H782.342V38.5566L782.861 37.9072L784.905 35.6035H786.901L784.153 38.6865L787.195 43H785.274L783.08 39.8281ZM795.747 39.7598C795.647 40.8216 795.255 41.651 794.571 42.248C793.888 42.8405 792.979 43.1367 791.844 43.1367C791.051 43.1367 790.351 42.9499 789.745 42.5762C789.144 42.1979 788.679 41.6624 788.351 40.9697C788.022 40.277 787.852 39.4727 787.838 38.5566V37.627C787.838 36.6882 788.004 35.861 788.337 35.1455C788.67 34.43 789.146 33.8786 789.766 33.4912C790.39 33.1038 791.11 32.9102 791.926 32.9102C793.024 32.9102 793.908 33.2087 794.578 33.8057C795.248 34.4027 795.638 35.2458 795.747 36.335H794.024C793.942 35.6195 793.733 35.1045 793.396 34.79C793.063 34.471 792.573 34.3115 791.926 34.3115C791.174 34.3115 790.595 34.5872 790.189 35.1387C789.788 35.6855 789.583 36.4899 789.574 37.5518V38.4336C789.574 39.5091 789.766 40.3294 790.148 40.8945C790.536 41.4596 791.101 41.7422 791.844 41.7422C792.523 41.7422 793.033 41.5895 793.375 41.2842C793.717 40.9788 793.933 40.4707 794.024 39.7598H795.747ZM801.558 43C801.485 42.8587 801.421 42.6286 801.366 42.3096C800.838 42.861 800.19 43.1367 799.425 43.1367C798.682 43.1367 798.076 42.9248 797.606 42.501C797.137 42.0771 796.902 41.5531 796.902 40.9287C796.902 40.1403 797.194 39.5365 797.777 39.1172C798.365 38.6934 799.204 38.4814 800.293 38.4814H801.312V37.9961C801.312 37.6133 801.204 37.3079 800.99 37.0801C800.776 36.8477 800.45 36.7314 800.013 36.7314C799.634 36.7314 799.325 36.8271 799.083 37.0186C798.841 37.2054 798.721 37.4447 798.721 37.7363H797.06C797.06 37.3307 797.194 36.9525 797.463 36.6016C797.732 36.2461 798.096 35.9681 798.557 35.7676C799.021 35.5671 799.539 35.4668 800.108 35.4668C800.974 35.4668 801.665 35.6855 802.18 36.123C802.695 36.556 802.959 37.1667 802.973 37.9551V41.291C802.973 41.9564 803.066 42.4873 803.253 42.8838V43H801.558ZM799.732 41.8037C800.061 41.8037 800.368 41.724 800.655 41.5645C800.947 41.4049 801.166 41.1908 801.312 40.9219V39.5273H800.416C799.801 39.5273 799.338 39.6344 799.028 39.8486C798.718 40.0628 798.563 40.3659 798.563 40.7578C798.563 41.0768 798.668 41.332 798.878 41.5234C799.092 41.7103 799.377 41.8037 799.732 41.8037ZM806.479 43H804.818V32.5H806.479V43ZM811.497 39.0625C811.497 40.0742 811.358 41.0518 811.08 41.9951C810.802 42.9339 810.381 43.7884 809.815 44.5586C809.25 45.3333 808.66 45.8688 808.045 46.165L807.717 45.2422C808.4 44.7135 808.94 43.9069 809.337 42.8223C809.738 41.7331 809.938 40.4912 809.938 39.0967V38.9395C809.938 37.6725 809.765 36.5195 809.419 35.4805C809.073 34.4368 808.576 33.6006 807.929 32.9717L807.717 32.7803L808.045 31.8506C808.628 32.1331 809.193 32.6344 809.74 33.3545C810.287 34.0745 810.706 34.8812 810.998 35.7744C811.29 36.6631 811.454 37.5814 811.49 38.5293L811.497 39.0625Z" fill="#74798C"/>
<path fill-rule="evenodd" clip-rule="evenodd" d="M654 42C656.209 42 658 40.2091 658 38C658 35.7909 656.209 34 654 34C651.791 34 650 35.7909 650 38C650 40.2091 651.791 42 654 42Z" fill="#E60000"/>
<path d="M43.0532 40.5171H38.9224L38.0581 43H36.1318L40.1602 32.3359H41.8228L45.8584 43H43.9248L43.0532 40.5171ZM39.4424 39.0229H42.5332L40.9878 34.5991L39.4424 39.0229ZM50.1577 41.7256C50.6021 41.7256 50.9707 41.5962 51.2637 41.3374C51.5566 41.0786 51.7129 40.7588 51.7324 40.3779H53.4097C53.3901 40.8711 53.2363 41.3325 52.9482 41.7622C52.6602 42.187 52.2695 42.5239 51.7764 42.7729C51.2832 43.022 50.751 43.1465 50.1797 43.1465C49.0713 43.1465 48.1924 42.7876 47.543 42.0698C46.8936 41.3521 46.5688 40.3608 46.5688 39.0962V38.9131C46.5688 37.707 46.8911 36.7427 47.5356 36.02C48.1802 35.2925 49.0591 34.9287 50.1724 34.9287C51.1147 34.9287 51.8813 35.2046 52.4722 35.7563C53.0679 36.3032 53.3804 37.0234 53.4097 37.917H51.7324C51.7129 37.4629 51.5566 37.0894 51.2637 36.7964C50.9756 36.5034 50.6069 36.3569 50.1577 36.3569C49.5815 36.3569 49.1372 36.5669 48.8247 36.9868C48.5122 37.4019 48.3535 38.0342 48.3486 38.8838V39.1694C48.3486 40.0288 48.5024 40.6709 48.8101 41.0957C49.1226 41.5156 49.5718 41.7256 50.1577 41.7256ZM56.9839 33.1489V35.0752H58.3828V36.3936H56.9839V40.8174C56.9839 41.1201 57.0425 41.3398 57.1597 41.4766C57.2817 41.6084 57.4966 41.6743 57.8042 41.6743C58.0093 41.6743 58.2168 41.6499 58.4268 41.6011V42.978C58.0215 43.0903 57.6309 43.1465 57.2549 43.1465C55.8877 43.1465 55.2041 42.3921 55.2041 40.8833V36.3936H53.9004V35.0752H55.2041V33.1489H56.9839ZM61.6421 43H59.8623V35.0752H61.6421V43ZM59.7524 33.0171C59.7524 32.7437 59.8379 32.5166 60.0088 32.3359C60.1846 32.1553 60.4336 32.0649 60.7559 32.0649C61.0781 32.0649 61.3271 32.1553 61.5029 32.3359C61.6787 32.5166 61.7666 32.7437 61.7666 33.0171C61.7666 33.2856 61.6787 33.5103 61.5029 33.6909C61.3271 33.8667 61.0781 33.9546 60.7559 33.9546C60.4336 33.9546 60.1846 33.8667 60.0088 33.6909C59.8379 33.5103 59.7524 33.2856 59.7524 33.0171ZM66.3809 40.7441L68.0581 35.0752H69.8965L67.1499 43H65.6045L62.8359 35.0752H64.6816L66.3809 40.7441ZM72.9067 43H71.127V35.0752H72.9067V43ZM71.0171 33.0171C71.0171 32.7437 71.1025 32.5166 71.2734 32.3359C71.4492 32.1553 71.6982 32.0649 72.0205 32.0649C72.3428 32.0649 72.5918 32.1553 72.7676 32.3359C72.9434 32.5166 73.0312 32.7437 73.0312 33.0171C73.0312 33.2856 72.9434 33.5103 72.7676 33.6909C72.5918 33.8667 72.3428 33.9546 72.0205 33.9546C71.6982 33.9546 71.4492 33.8667 71.2734 33.6909C71.1025 33.5103 71.0171 33.2856 71.0171 33.0171ZM77.0815 33.1489V35.0752H78.4805V36.3936H77.0815V40.8174C77.0815 41.1201 77.1401 41.3398 77.2573 41.4766C77.3794 41.6084 77.5942 41.6743 77.9019 41.6743C78.1069 41.6743 78.3145 41.6499 78.5244 41.6011V42.978C78.1191 43.0903 77.7285 43.1465 77.3525 43.1465C75.9854 43.1465 75.3018 42.3921 75.3018 40.8833V36.3936H73.998V35.0752H75.3018V33.1489H77.0815ZM83.3364 43.1465C82.2085 43.1465 81.293 42.7925 80.5898 42.0845C79.8916 41.3716 79.5425 40.4243 79.5425 39.2427V39.0229C79.5425 38.2319 79.6938 37.5264 79.9966 36.9062C80.3042 36.2812 80.7339 35.7954 81.2856 35.4487C81.8374 35.1021 82.4526 34.9287 83.1313 34.9287C84.2104 34.9287 85.043 35.2729 85.6289 35.9614C86.2197 36.6499 86.5151 37.624 86.5151 38.8838V39.6016H81.3369C81.3906 40.2559 81.6079 40.7734 81.9888 41.1543C82.3745 41.5352 82.8579 41.7256 83.439 41.7256C84.2544 41.7256 84.9185 41.396 85.4312 40.7368L86.3906 41.6523C86.0732 42.126 85.6484 42.4946 85.1162 42.7583C84.5889 43.0171 83.9956 43.1465 83.3364 43.1465ZM83.124 36.3569C82.6357 36.3569 82.2402 36.5278 81.9375 36.8696C81.6396 37.2114 81.4492 37.6875 81.3662 38.2979H84.7573V38.166C84.7183 37.5703 84.5596 37.1211 84.2812 36.8184C84.0029 36.5107 83.6172 36.3569 83.124 36.3569ZM83.5269 31.75H85.5557L83.5269 33.9692H82.0986L83.5269 31.75ZM91.3052 38.9717C91.3052 37.7314 91.5884 36.7476 92.1548 36.02C92.7212 35.2925 93.4878 34.9287 94.4546 34.9287C95.3384 34.9287 96.0391 35.2388 96.5566 35.8589L96.6592 35.0752H98.2412V46.0469H96.4614V42.3262C95.9438 42.873 95.27 43.1465 94.4399 43.1465C93.4927 43.1465 92.7334 42.7778 92.1621 42.0405C91.5908 41.2983 91.3052 40.2754 91.3052 38.9717ZM93.085 39.1255C93.085 39.936 93.2437 40.5732 93.561 41.0371C93.8833 41.4961 94.3276 41.7256 94.894 41.7256C95.5972 41.7256 96.1196 41.4253 96.4614 40.8247V37.2212C96.1196 36.645 95.6021 36.3569 94.9087 36.3569C94.3423 36.3569 93.8955 36.584 93.5684 37.0381C93.2461 37.4922 93.085 38.188 93.085 39.1255ZM104.965 42.2236C104.442 42.8389 103.7 43.1465 102.738 43.1465C101.879 43.1465 101.227 42.895 100.783 42.3921C100.343 41.8892 100.124 41.1616 100.124 40.2095V35.0752H101.903V40.1875C101.903 41.1934 102.321 41.6963 103.156 41.6963C104.02 41.6963 104.604 41.3862 104.906 40.7661V35.0752H106.686V43H105.009L104.965 42.2236ZM108.166 38.9644C108.166 38.188 108.319 37.4897 108.627 36.8696C108.935 36.2446 109.367 35.7661 109.923 35.4341C110.48 35.0972 111.12 34.9287 111.842 34.9287C112.912 34.9287 113.778 35.2729 114.442 35.9614C115.111 36.6499 115.473 37.563 115.526 38.7007L115.534 39.1182C115.534 39.8994 115.382 40.5977 115.08 41.2129C114.782 41.8281 114.352 42.3042 113.791 42.6411C113.234 42.978 112.589 43.1465 111.857 43.1465C110.739 43.1465 109.843 42.7754 109.169 42.0332C108.5 41.2861 108.166 40.2925 108.166 39.0522V38.9644ZM109.945 39.1182C109.945 39.9336 110.114 40.5732 110.451 41.0371C110.788 41.4961 111.256 41.7256 111.857 41.7256C112.458 41.7256 112.924 41.4912 113.256 41.0225C113.593 40.5537 113.761 39.8677 113.761 38.9644C113.761 38.1636 113.588 37.5288 113.241 37.0601C112.899 36.5913 112.433 36.3569 111.842 36.3569C111.261 36.3569 110.8 36.5889 110.458 37.0527C110.116 37.5117 109.945 38.2002 109.945 39.1182ZM119.269 33.1489V35.0752H120.668V36.3936H119.269V40.8174C119.269 41.1201 119.328 41.3398 119.445 41.4766C119.567 41.6084 119.782 41.6743 120.089 41.6743C120.294 41.6743 120.502 41.6499 120.712 41.6011V42.978C120.307 43.0903 119.916 43.1465 119.54 43.1465C118.173 43.1465 117.489 42.3921 117.489 40.8833V36.3936H116.186V35.0752H117.489V33.1489H119.269ZM123.927 43H122.147V35.0752H123.927V43ZM122.038 33.0171C122.038 32.7437 122.123 32.5166 122.294 32.3359C122.47 32.1553 122.719 32.0649 123.041 32.0649C123.363 32.0649 123.612 32.1553 123.788 32.3359C123.964 32.5166 124.052 32.7437 124.052 33.0171C124.052 33.2856 123.964 33.5103 123.788 33.6909C123.612 33.8667 123.363 33.9546 123.041 33.9546C122.719 33.9546 122.47 33.8667 122.294 33.6909C122.123 33.5103 122.038 33.2856 122.038 33.0171ZM125.539 38.979C125.539 37.7583 125.822 36.7793 126.388 36.042C126.955 35.2998 127.714 34.9287 128.666 34.9287C129.506 34.9287 130.185 35.2217 130.702 35.8076V31.75H132.482V43H130.871L130.783 42.1797C130.25 42.8242 129.54 43.1465 128.651 43.1465C127.724 43.1465 126.972 42.7729 126.396 42.0259C125.824 41.2788 125.539 40.2632 125.539 38.979ZM127.318 39.1328C127.318 39.9385 127.472 40.5684 127.78 41.0225C128.092 41.4717 128.534 41.6963 129.105 41.6963C129.833 41.6963 130.365 41.3716 130.702 40.7222V37.3384C130.375 36.7036 129.848 36.3862 129.12 36.3862C128.544 36.3862 128.1 36.6157 127.787 37.0747C127.475 37.5288 127.318 38.2148 127.318 39.1328ZM136.232 43H134.452V35.0752H136.232V43ZM134.342 33.0171C134.342 32.7437 134.428 32.5166 134.599 32.3359C134.774 32.1553 135.023 32.0649 135.346 32.0649C135.668 32.0649 135.917 32.1553 136.093 32.3359C136.269 32.5166 136.356 32.7437 136.356 33.0171C136.356 33.2856 136.269 33.5103 136.093 33.6909C135.917 33.8667 135.668 33.9546 135.346 33.9546C135.023 33.9546 134.774 33.8667 134.599 33.6909C134.428 33.5103 134.342 33.2856 134.342 33.0171ZM141.667 43.1465C140.539 43.1465 139.623 42.7925 138.92 42.0845C138.222 41.3716 137.873 40.4243 137.873 39.2427V39.0229C137.873 38.2319 138.024 37.5264 138.327 36.9062C138.634 36.2812 139.064 35.7954 139.616 35.4487C140.167 35.1021 140.783 34.9287 141.461 34.9287C142.541 34.9287 143.373 35.2729 143.959 35.9614C144.55 36.6499 144.845 37.624 144.845 38.8838V39.6016H139.667C139.721 40.2559 139.938 40.7734 140.319 41.1543C140.705 41.5352 141.188 41.7256 141.769 41.7256C142.584 41.7256 143.249 41.396 143.761 40.7368L144.721 41.6523C144.403 42.126 143.979 42.4946 143.446 42.7583C142.919 43.0171 142.326 43.1465 141.667 43.1465ZM141.454 36.3569C140.966 36.3569 140.57 36.5278 140.268 36.8696C139.97 37.2114 139.779 37.6875 139.696 38.2979H143.087V38.166C143.048 37.5703 142.89 37.1211 142.611 36.8184C142.333 36.5107 141.947 36.3569 141.454 36.3569ZM147.885 35.0752L147.936 35.9907C148.522 35.2827 149.291 34.9287 150.243 34.9287C151.894 34.9287 152.733 35.8735 152.763 37.7632V43H150.983V37.8657C150.983 37.3628 150.873 36.9917 150.653 36.7524C150.438 36.5083 150.084 36.3862 149.591 36.3862C148.874 36.3862 148.339 36.7109 147.987 37.3604V43H146.208V35.0752H147.885ZM156.234 35.0752L156.286 35.9907C156.872 35.2827 157.641 34.9287 158.593 34.9287C160.243 34.9287 161.083 35.8735 161.112 37.7632V43H159.333V37.8657C159.333 37.3628 159.223 36.9917 159.003 36.7524C158.788 36.5083 158.434 36.3862 157.941 36.3862C157.223 36.3862 156.688 36.7109 156.337 37.3604V43H154.557V35.0752H156.234ZM166.422 43.1465C165.294 43.1465 164.379 42.7925 163.676 42.0845C162.978 41.3716 162.628 40.4243 162.628 39.2427V39.0229C162.628 38.2319 162.78 37.5264 163.083 36.9062C163.39 36.2812 163.82 35.7954 164.372 35.4487C164.923 35.1021 165.539 34.9287 166.217 34.9287C167.296 34.9287 168.129 35.2729 168.715 35.9614C169.306 36.6499 169.601 37.624 169.601 38.8838V39.6016H164.423C164.477 40.2559 164.694 40.7734 165.075 41.1543C165.46 41.5352 165.944 41.7256 166.525 41.7256C167.34 41.7256 168.004 41.396 168.517 40.7368L169.477 41.6523C169.159 42.126 168.734 42.4946 168.202 42.7583C167.675 43.0171 167.082 43.1465 166.422 43.1465ZM166.21 36.3569C165.722 36.3569 165.326 36.5278 165.023 36.8696C164.726 37.2114 164.535 37.6875 164.452 38.2979H167.843V38.166C167.804 37.5703 167.646 37.1211 167.367 36.8184C167.089 36.5107 166.703 36.3569 166.21 36.3569Z" fill="#20253A"/>
<rect x="241" y="84" width="39" height="63" fill="#E60000"/>
<path d="M255.198 96.9995V97.6865H255.095C254.63 97.6934 254.259 97.821 253.981 98.0693C253.703 98.3177 253.538 98.6698 253.485 99.1255C253.752 98.8452 254.093 98.7051 254.507 98.7051C254.947 98.7051 255.293 98.86 255.546 99.1699C255.802 99.4798 255.929 99.8797 255.929 100.37C255.929 100.875 255.78 101.286 255.481 101.6C255.185 101.912 254.796 102.068 254.312 102.068C253.816 102.068 253.412 101.885 253.103 101.518C252.795 101.151 252.641 100.67 252.641 100.076V99.792C252.641 98.9193 252.853 98.2357 253.277 97.7412C253.703 97.2467 254.315 96.9995 255.112 96.9995H255.198ZM254.306 99.375C254.123 99.375 253.956 99.4263 253.803 99.5288C253.653 99.6313 253.542 99.7681 253.472 99.939V100.192C253.472 100.561 253.549 100.855 253.704 101.074C253.859 101.29 254.06 101.398 254.306 101.398C254.552 101.398 254.747 101.306 254.89 101.122C255.034 100.937 255.105 100.694 255.105 100.394C255.105 100.093 255.033 99.8478 254.887 99.6587C254.741 99.4696 254.547 99.375 254.306 99.375ZM259.727 98.3359C259.727 98.5798 259.664 98.7974 259.539 98.9888C259.413 99.1779 259.242 99.3271 259.026 99.4365C259.286 99.5573 259.485 99.7225 259.624 99.9321C259.765 100.142 259.836 100.379 259.836 100.643C259.836 101.081 259.688 101.428 259.392 101.686C259.095 101.941 258.701 102.068 258.209 102.068C257.715 102.068 257.318 101.94 257.02 101.682C256.723 101.425 256.575 101.078 256.575 100.643C256.575 100.376 256.646 100.137 256.787 99.9253C256.928 99.7134 257.127 99.5505 257.382 99.4365C257.168 99.3271 256.998 99.1779 256.873 98.9888C256.75 98.7974 256.688 98.5798 256.688 98.3359C256.688 97.9121 256.825 97.576 257.098 97.3276C257.372 97.0793 257.741 96.9551 258.206 96.9551C258.673 96.9551 259.043 97.0793 259.316 97.3276C259.59 97.576 259.727 97.9121 259.727 98.3359ZM259.005 100.602C259.005 100.356 258.931 100.158 258.783 100.007C258.637 99.8547 258.444 99.7783 258.202 99.7783C257.961 99.7783 257.767 99.8535 257.621 100.004C257.478 100.154 257.406 100.354 257.406 100.602C257.406 100.846 257.476 101.041 257.618 101.187C257.761 101.332 257.958 101.405 258.209 101.405C258.46 101.405 258.654 101.335 258.793 101.193C258.935 101.052 259.005 100.855 259.005 100.602ZM258.899 98.3667C258.899 98.1502 258.837 97.9725 258.711 97.8335C258.586 97.6922 258.417 97.6216 258.206 97.6216C257.994 97.6216 257.826 97.6888 257.703 97.8232C257.58 97.9554 257.519 98.1366 257.519 98.3667C257.519 98.5946 257.58 98.7757 257.703 98.9102C257.828 99.0446 257.997 99.1118 258.209 99.1118C258.421 99.1118 258.588 99.0446 258.711 98.9102C258.837 98.7757 258.899 98.5946 258.899 98.3667ZM261.825 100.414L261.456 100.793V102H260.625V96.75H261.456V99.7783L261.716 99.4536L262.738 98.3018H263.736L262.362 99.8433L263.883 102H262.922L261.825 100.414ZM264.067 100.124C264.067 99.5493 264.202 99.0913 264.471 98.7495C264.742 98.4054 265.101 98.2334 265.547 98.2334C265.969 98.2334 266.3 98.3804 266.542 98.6743L266.58 98.3018H267.328V101.887C267.328 102.373 267.177 102.755 266.874 103.036C266.573 103.316 266.166 103.456 265.653 103.456C265.382 103.456 265.117 103.399 264.857 103.285C264.599 103.174 264.403 103.027 264.269 102.844L264.662 102.345C264.917 102.648 265.232 102.8 265.605 102.8C265.881 102.8 266.099 102.725 266.258 102.574C266.418 102.426 266.498 102.207 266.498 101.918V101.668C266.258 101.935 265.939 102.068 265.541 102.068C265.108 102.068 264.753 101.896 264.478 101.552C264.204 101.208 264.067 100.732 264.067 100.124ZM264.895 100.195C264.895 100.567 264.97 100.86 265.12 101.074C265.273 101.286 265.484 101.392 265.752 101.392C266.087 101.392 266.336 101.248 266.498 100.961V99.334C266.34 99.0537 266.094 98.9136 265.759 98.9136C265.486 98.9136 265.273 99.0218 265.12 99.2383C264.97 99.4548 264.895 99.7738 264.895 100.195Z" fill="white"/>
<path d="M248.581 130.132H249.086C249.342 130.13 249.543 130.064 249.691 129.934C249.842 129.804 249.917 129.616 249.917 129.37C249.917 129.133 249.854 128.95 249.729 128.82C249.606 128.688 249.417 128.622 249.162 128.622C248.938 128.622 248.755 128.687 248.611 128.816C248.468 128.944 248.396 129.111 248.396 129.319H247.565C247.565 129.064 247.633 128.831 247.767 128.622C247.904 128.412 248.093 128.249 248.334 128.133C248.578 128.014 248.851 127.955 249.151 127.955C249.648 127.955 250.038 128.08 250.32 128.331C250.605 128.579 250.748 128.926 250.748 129.37C250.748 129.593 250.676 129.804 250.532 130.002C250.391 130.198 250.208 130.347 249.982 130.447C250.255 130.54 250.463 130.687 250.604 130.888C250.748 131.088 250.819 131.327 250.819 131.605C250.819 132.052 250.666 132.408 250.358 132.672C250.053 132.936 249.65 133.068 249.151 133.068C248.673 133.068 248.281 132.941 247.976 132.686C247.67 132.43 247.518 132.091 247.518 131.667H248.348C248.348 131.886 248.421 132.063 248.567 132.2C248.715 132.337 248.913 132.405 249.162 132.405C249.419 132.405 249.622 132.337 249.77 132.2C249.918 132.063 249.992 131.865 249.992 131.605C249.992 131.343 249.915 131.142 249.76 131C249.605 130.859 249.375 130.789 249.069 130.789H248.581V130.132ZM251.821 130.532L252.091 128.023H254.764V128.741H252.781L252.645 129.931C252.875 129.799 253.134 129.732 253.424 129.732C253.898 129.732 254.266 129.884 254.528 130.187C254.792 130.49 254.924 130.898 254.924 131.411C254.924 131.917 254.778 132.32 254.487 132.621C254.195 132.919 253.795 133.068 253.287 133.068C252.831 133.068 252.453 132.94 252.152 132.682C251.854 132.422 251.692 132.081 251.667 131.657H252.47C252.502 131.898 252.589 132.084 252.73 132.214C252.871 132.341 253.056 132.405 253.284 132.405C253.539 132.405 253.737 132.314 253.878 132.132C254.022 131.95 254.094 131.701 254.094 131.387C254.094 131.084 254.015 130.844 253.858 130.669C253.701 130.491 253.484 130.402 253.208 130.402C253.058 130.402 252.931 130.423 252.826 130.464C252.721 130.503 252.607 130.58 252.484 130.696L251.821 130.532ZM258.161 128V128.687H258.059C257.594 128.693 257.222 128.821 256.944 129.069C256.666 129.318 256.501 129.67 256.449 130.125C256.715 129.845 257.056 129.705 257.471 129.705C257.91 129.705 258.257 129.86 258.51 130.17C258.765 130.48 258.893 130.88 258.893 131.37C258.893 131.875 258.743 132.286 258.445 132.6C258.149 132.912 257.759 133.068 257.276 133.068C256.779 133.068 256.376 132.885 256.066 132.518C255.758 132.151 255.604 131.67 255.604 131.076V130.792C255.604 129.919 255.816 129.236 256.24 128.741C256.666 128.247 257.278 128 258.076 128H258.161ZM257.269 130.375C257.087 130.375 256.919 130.426 256.767 130.529C256.616 130.631 256.506 130.768 256.435 130.939V131.192C256.435 131.561 256.513 131.855 256.667 132.074C256.822 132.29 257.023 132.398 257.269 132.398C257.515 132.398 257.71 132.306 257.854 132.122C257.997 131.937 258.069 131.694 258.069 131.394C258.069 131.093 257.996 130.848 257.85 130.659C257.704 130.47 257.511 130.375 257.269 130.375ZM261.118 130.85L260.554 131.448V133H259.689V128.023H260.554V130.358L261.032 129.767L262.488 128.023H263.534L261.685 130.228L263.64 133H262.615L261.118 130.85ZM265.455 132.405C265.662 132.405 265.834 132.345 265.971 132.224C266.108 132.103 266.181 131.954 266.19 131.776H266.973C266.964 132.007 266.892 132.222 266.757 132.422C266.623 132.621 266.441 132.778 266.21 132.894C265.98 133.01 265.732 133.068 265.465 133.068C264.948 133.068 264.538 132.901 264.235 132.566C263.932 132.231 263.78 131.768 263.78 131.178V131.093C263.78 130.53 263.931 130.08 264.231 129.743C264.532 129.403 264.942 129.233 265.462 129.233C265.902 129.233 266.259 129.362 266.535 129.62C266.813 129.875 266.959 130.211 266.973 130.628H266.19C266.181 130.416 266.108 130.242 265.971 130.105C265.837 129.968 265.665 129.9 265.455 129.9C265.186 129.9 264.979 129.998 264.833 130.194C264.687 130.388 264.613 130.683 264.611 131.079V131.212C264.611 131.613 264.683 131.913 264.826 132.111C264.972 132.307 265.182 132.405 265.455 132.405ZM269.81 133C269.773 132.929 269.741 132.814 269.714 132.655C269.45 132.931 269.126 133.068 268.743 133.068C268.372 133.068 268.069 132.962 267.834 132.75C267.599 132.539 267.482 132.277 267.482 131.964C267.482 131.57 267.628 131.268 267.919 131.059C268.213 130.847 268.633 130.741 269.177 130.741H269.687V130.498C269.687 130.307 269.633 130.154 269.526 130.04C269.419 129.924 269.256 129.866 269.037 129.866C268.848 129.866 268.693 129.914 268.572 130.009C268.451 130.103 268.391 130.222 268.391 130.368H267.561C267.561 130.165 267.628 129.976 267.762 129.801C267.897 129.623 268.079 129.484 268.309 129.384C268.542 129.284 268.8 129.233 269.085 129.233C269.518 129.233 269.863 129.343 270.121 129.562C270.378 129.778 270.51 130.083 270.517 130.478V132.146C270.517 132.478 270.564 132.744 270.657 132.942V133H269.81ZM268.897 132.402C269.061 132.402 269.215 132.362 269.358 132.282C269.504 132.202 269.614 132.095 269.687 131.961V131.264H269.239C268.931 131.264 268.7 131.317 268.545 131.424C268.39 131.531 268.312 131.683 268.312 131.879C268.312 132.038 268.365 132.166 268.47 132.262C268.577 132.355 268.719 132.402 268.897 132.402ZM272.271 133H271.44V127.75H272.271V133Z" fill="white"/>
<defs>
<filter id="filter0_d_2_156" x="0" y="0" width="843" height="328" filterUnits="userSpaceOnUse" color-interpolation-filters="sRGB">
<feFlood flood-opacity="0" result="BackgroundImageFix"/>
<feColorMatrix in="SourceAlpha" type="matrix" values="0 0 0 0 0 0 0 0 0 0 0 0 0 0 0 0 0 0 127 0" result="hardAlpha"/>
<feOffset dy="2"/>
<feGaussianBlur stdDeviation="2"/>
<feColorMatrix type="matrix" values="0 0 0 0 0 0 0 0 0 0 0 0 0 0 0 0 0 0 0.0212249 0"/>
<feBlend mode="normal" in2="BackgroundImageFix" result="effect1_dropShadow_2_156"/>
<feBlend mode="normal" in="SourceGraphic" in2="effect1_dropShadow_2_156" result="shape"/>
</filter>
<clipPath id="clip0_2_156">
<rect width="690" height="24" fill="white" transform="translate(55.5 275)"/>
</clipPath>
</defs>
</svg>
