<svg width="258" height="124" viewBox="0 0 258 124" fill="none" xmlns="http://www.w3.org/2000/svg">
<g clip-path="url(#clip0_2_151)">
<g filter="url(#filter0_d_2_151)">
<rect width="258" height="124" rx="5" fill="#FBFBFB"/>
</g>
<rect x="32" y="32" width="60" height="60" rx="6" fill="#4AB8FF" fill-opacity="0.1"/>
<path d="M71.2353 56.4706C70.8824 56.1176 70.4118 55.8823 70.0588 55.8823C69.9412 55.4118 69.8235 55.0588 69.4706 54.7059C68.6471 53.8823 67.2353 53.8823 66.4118 54.7059C65.7059 55.4118 65.5882 56.5882 66.1765 57.4118L63.5882 59.8823L62.2941 58.5882L59.7059 61.1765C59.4706 61.0588 59.1176 61.0588 58.8824 61.0588C55.5882 61.0588 53 63.647 53 66.9412C53 70.2353 55.5882 72.8235 58.8824 72.8235C62.1765 72.8235 64.7647 70.2353 64.7647 66.9412C64.7647 66.7059 64.7647 66.3529 64.6471 66.1176L67.2353 63.5294L65.9412 62.2353L68.4118 59.7647C69.2353 60.3529 70.4118 60.2353 71.1176 59.5294C72.0588 58.7059 72.0588 57.2941 71.2353 56.4706Z" fill="#4AB8FF"/>
<path d="M123.822 58H121V47.1211L117.631 48.166V45.8711L123.52 43.7617H123.822V58ZM128.871 51.0078L129.691 43.7812H137.66V46.1348H132.006L131.654 49.1914C132.325 48.8333 133.038 48.6543 133.793 48.6543C135.147 48.6543 136.208 49.0742 136.977 49.9141C137.745 50.7539 138.129 51.929 138.129 53.4395C138.129 54.3574 137.934 55.181 137.543 55.9102C137.159 56.6328 136.605 57.196 135.883 57.5996C135.16 57.9967 134.307 58.1953 133.324 58.1953C132.465 58.1953 131.667 58.0228 130.932 57.6777C130.196 57.3262 129.613 56.8346 129.184 56.2031C128.76 55.5716 128.536 54.8522 128.51 54.0449H131.303C131.361 54.6374 131.566 55.0996 131.918 55.4316C132.276 55.7572 132.742 55.9199 133.314 55.9199C133.952 55.9199 134.444 55.6921 134.789 55.2363C135.134 54.7741 135.307 54.123 135.307 53.2832C135.307 52.4759 135.108 51.8574 134.711 51.4277C134.314 50.998 133.751 50.7832 133.021 50.7832C132.351 50.7832 131.807 50.959 131.391 51.3105L131.117 51.5645L128.871 51.0078ZM140.355 51.0078L141.176 43.7812H149.145V46.1348H143.49L143.139 49.1914C143.809 48.8333 144.522 48.6543 145.277 48.6543C146.632 48.6543 147.693 49.0742 148.461 49.9141C149.229 50.7539 149.613 51.929 149.613 53.4395C149.613 54.3574 149.418 55.181 149.027 55.9102C148.643 56.6328 148.09 57.196 147.367 57.5996C146.645 57.9967 145.792 58.1953 144.809 58.1953C143.949 58.1953 143.152 58.0228 142.416 57.6777C141.68 57.3262 141.098 56.8346 140.668 56.2031C140.245 55.5716 140.02 54.8522 139.994 54.0449H142.787C142.846 54.6374 143.051 55.0996 143.402 55.4316C143.76 55.7572 144.226 55.9199 144.799 55.9199C145.437 55.9199 145.928 55.6921 146.273 55.2363C146.618 54.7741 146.791 54.123 146.791 53.2832C146.791 52.4759 146.592 51.8574 146.195 51.4277C145.798 50.998 145.235 50.7832 144.506 50.7832C143.835 50.7832 143.292 50.959 142.875 51.3105L142.602 51.5645L140.355 51.0078ZM151.127 52.6387C151.127 51.0176 151.511 49.7122 152.279 48.7227C153.054 47.7331 154.096 47.2383 155.404 47.2383C156.563 47.2383 157.465 47.6354 158.109 48.4297L158.227 47.4336H160.785V57.6484C160.785 58.5729 160.574 59.377 160.15 60.0605C159.734 60.7441 159.145 61.265 158.383 61.623C157.621 61.9811 156.729 62.1602 155.707 62.1602C154.932 62.1602 154.177 62.0039 153.441 61.6914C152.706 61.3854 152.149 60.9883 151.771 60.5L153.021 58.7812C153.725 59.569 154.577 59.9629 155.58 59.9629C156.329 59.9629 156.911 59.7611 157.328 59.3574C157.745 58.9603 157.953 58.3939 157.953 57.6582V57.0918C157.302 57.8275 156.446 58.1953 155.385 58.1953C154.115 58.1953 153.087 57.7005 152.299 56.7109C151.518 55.7148 151.127 54.3965 151.127 52.7559V52.6387ZM153.949 52.8438C153.949 53.8008 154.141 54.5527 154.525 55.0996C154.91 55.64 155.437 55.9102 156.107 55.9102C156.967 55.9102 157.582 55.5879 157.953 54.9434V50.5C157.576 49.8555 156.967 49.5332 156.127 49.5332C155.45 49.5332 154.916 49.8099 154.525 50.3633C154.141 50.9167 153.949 51.7435 153.949 52.8438Z" fill="#282D30"/>
<path d="M118.741 78.3018V82H117.012V72.0469H120.819C121.931 72.0469 122.813 72.3363 123.465 72.915C124.121 73.4938 124.449 74.2594 124.449 75.2119C124.449 76.1872 124.128 76.946 123.485 77.4883C122.847 78.0306 121.952 78.3018 120.799 78.3018H118.741ZM118.741 76.9141H120.819C121.435 76.9141 121.904 76.7705 122.228 76.4834C122.551 76.1917 122.713 75.7725 122.713 75.2256C122.713 74.6878 122.549 74.2594 122.221 73.9404C121.893 73.6169 121.441 73.4505 120.867 73.4414H118.741V76.9141ZM129.679 76.1211C129.46 76.0846 129.234 76.0664 129.002 76.0664C128.241 76.0664 127.728 76.3581 127.464 76.9414V82H125.803V74.6035H127.389L127.43 75.4307C127.831 74.7881 128.387 74.4668 129.098 74.4668C129.335 74.4668 129.531 74.4987 129.686 74.5625L129.679 76.1211ZM130.171 78.2334C130.171 77.5088 130.314 76.8571 130.602 76.2783C130.889 75.695 131.292 75.2484 131.812 74.9385C132.331 74.624 132.928 74.4668 133.603 74.4668C134.601 74.4668 135.41 74.7881 136.029 75.4307C136.654 76.0732 136.991 76.9255 137.041 77.9873L137.048 78.377C137.048 79.1061 136.907 79.7578 136.624 80.332C136.346 80.9062 135.945 81.3506 135.421 81.665C134.901 81.9795 134.3 82.1367 133.616 82.1367C132.573 82.1367 131.736 81.7904 131.107 81.0977C130.483 80.4004 130.171 79.473 130.171 78.3154V78.2334ZM131.832 78.377C131.832 79.138 131.989 79.735 132.304 80.168C132.618 80.5964 133.056 80.8105 133.616 80.8105C134.177 80.8105 134.612 80.5918 134.922 80.1543C135.236 79.7168 135.394 79.0765 135.394 78.2334C135.394 77.486 135.232 76.8936 134.908 76.4561C134.589 76.0186 134.154 75.7998 133.603 75.7998C133.06 75.7998 132.63 76.0163 132.311 76.4492C131.992 76.8776 131.832 77.5202 131.832 78.377ZM140.534 72.8057V74.6035H141.84V75.834H140.534V79.9629C140.534 80.2454 140.589 80.4505 140.698 80.5781C140.812 80.7012 141.013 80.7627 141.3 80.7627C141.491 80.7627 141.685 80.7399 141.881 80.6943V81.9795C141.503 82.0843 141.138 82.1367 140.787 82.1367C139.511 82.1367 138.873 81.4326 138.873 80.0244V75.834H137.656V74.6035H138.873V72.8057H140.534ZM146.372 82.1367C145.319 82.1367 144.465 81.8063 143.809 81.1455C143.157 80.4801 142.831 79.596 142.831 78.4932V78.2881C142.831 77.5498 142.972 76.8913 143.255 76.3125C143.542 75.7292 143.943 75.2757 144.458 74.9521C144.973 74.6286 145.547 74.4668 146.181 74.4668C147.188 74.4668 147.965 74.7881 148.512 75.4307C149.063 76.0732 149.339 76.9824 149.339 78.1582V78.8281H144.506C144.556 79.4388 144.759 79.9219 145.114 80.2773C145.474 80.6328 145.925 80.8105 146.468 80.8105C147.229 80.8105 147.849 80.5029 148.327 79.8877L149.223 80.7422C148.926 81.1842 148.53 81.5283 148.033 81.7744C147.541 82.016 146.987 82.1367 146.372 82.1367ZM146.174 75.7998C145.718 75.7998 145.349 75.9593 145.066 76.2783C144.788 76.5973 144.611 77.0417 144.533 77.6113H147.698V77.4883C147.662 76.9323 147.514 76.513 147.254 76.2305C146.994 75.9434 146.634 75.7998 146.174 75.7998ZM152.401 82H150.74V74.6035H152.401V82ZM150.638 72.6826C150.638 72.4274 150.717 72.2155 150.877 72.0469C151.041 71.8783 151.273 71.7939 151.574 71.7939C151.875 71.7939 152.107 71.8783 152.271 72.0469C152.436 72.2155 152.518 72.4274 152.518 72.6826C152.518 72.9333 152.436 73.1429 152.271 73.3115C152.107 73.4756 151.875 73.5576 151.574 73.5576C151.273 73.5576 151.041 73.4756 150.877 73.3115C150.717 73.1429 150.638 72.9333 150.638 72.6826ZM155.758 74.6035L155.806 75.458C156.353 74.7972 157.07 74.4668 157.959 74.4668C159.499 74.4668 160.283 75.3486 160.311 77.1123V82H158.649V77.208C158.649 76.7386 158.547 76.3923 158.342 76.1689C158.141 75.9411 157.811 75.8271 157.351 75.8271C156.681 75.8271 156.182 76.1302 155.854 76.7363V82H154.192V74.6035H155.758ZM165.267 82.1367C164.214 82.1367 163.359 81.8063 162.703 81.1455C162.051 80.4801 161.726 79.596 161.726 78.4932V78.2881C161.726 77.5498 161.867 76.8913 162.149 76.3125C162.437 75.7292 162.838 75.2757 163.353 74.9521C163.868 74.6286 164.442 74.4668 165.075 74.4668C166.082 74.4668 166.859 74.7881 167.406 75.4307C167.958 76.0732 168.233 76.9824 168.233 78.1582V78.8281H163.4C163.451 79.4388 163.653 79.9219 164.009 80.2773C164.369 80.6328 164.82 80.8105 165.362 80.8105C166.123 80.8105 166.743 80.5029 167.222 79.8877L168.117 80.7422C167.821 81.1842 167.424 81.5283 166.928 81.7744C166.436 82.016 165.882 82.1367 165.267 82.1367ZM165.068 75.7998C164.613 75.7998 164.243 75.9593 163.961 76.2783C163.683 76.5973 163.505 77.0417 163.428 77.6113H166.593V77.4883C166.556 76.9323 166.408 76.513 166.148 76.2305C165.889 75.9434 165.529 75.7998 165.068 75.7998ZM173.675 79.9902C173.675 79.694 173.552 79.4684 173.306 79.3135C173.064 79.1585 172.661 79.0218 172.096 78.9033C171.531 78.7848 171.059 78.6344 170.681 78.4521C169.851 78.0511 169.437 77.4701 169.437 76.709C169.437 76.071 169.705 75.5378 170.243 75.1094C170.781 74.681 171.465 74.4668 172.294 74.4668C173.178 74.4668 173.891 74.6855 174.434 75.123C174.98 75.5605 175.254 76.1279 175.254 76.8252H173.593C173.593 76.5062 173.474 76.2419 173.237 76.0322C173 75.818 172.686 75.7109 172.294 75.7109C171.929 75.7109 171.631 75.7952 171.398 75.9639C171.171 76.1325 171.057 76.3581 171.057 76.6406C171.057 76.8958 171.164 77.0941 171.378 77.2354C171.592 77.3766 172.025 77.5202 172.677 77.666C173.328 77.8073 173.839 77.9782 174.208 78.1787C174.582 78.3747 174.857 78.6117 175.035 78.8896C175.217 79.1676 175.309 79.5049 175.309 79.9014C175.309 80.5667 175.033 81.1068 174.481 81.5215C173.93 81.9316 173.208 82.1367 172.314 82.1367C171.708 82.1367 171.168 82.0273 170.694 81.8086C170.22 81.5898 169.851 81.2891 169.587 80.9062C169.323 80.5234 169.19 80.111 169.19 79.6689H170.804C170.826 80.0609 170.975 80.3639 171.248 80.5781C171.521 80.7878 171.884 80.8926 172.335 80.8926C172.772 80.8926 173.105 80.8105 173.333 80.6465C173.561 80.4779 173.675 80.2591 173.675 79.9902Z" fill="#74798C"/>
</g>
<defs>
<filter id="filter0_d_2_151" x="-4" y="-2" width="266" height="132" filterUnits="userSpaceOnUse" color-interpolation-filters="sRGB">
<feFlood flood-opacity="0" result="BackgroundImageFix"/>
<feColorMatrix in="SourceAlpha" type="matrix" values="0 0 0 0 0 0 0 0 0 0 0 0 0 0 0 0 0 0 127 0" result="hardAlpha"/>
<feOffset dy="2"/>
<feGaussianBlur stdDeviation="2"/>
<feColorMatrix type="matrix" values="0 0 0 0 0 0 0 0 0 0 0 0 0 0 0 0 0 0 0.0212249 0"/>
<feBlend mode="normal" in2="BackgroundImageFix" result="effect1_dropShadow_2_151"/>
<feBlend mode="normal" in="SourceGraphic" in2="effect1_dropShadow_2_151" result="shape"/>
</filter>
<clipPath id="clip0_2_151">
<rect width="258" height="124" fill="white"/>
</clipPath>
</defs>
</svg>
