<svg width="64" height="64" viewBox="0 0 64 64" fill="none" xmlns="http://www.w3.org/2000/svg">
<path d="M58 0H6C2.68629 0 0 2.68629 0 6V58C0 61.3137 2.68629 64 6 64H58C61.3137 64 64 61.3137 64 58V6C64 2.68629 61.3137 0 58 0Z" fill="white"/>
<path d="M31.8133 16.5764C34.4561 16.5764 36.5998 14.4326 36.5998 11.7882C36.6 9.14371 34.4561 7 31.8133 7C29.1688 7 27.0251 9.14371 27.0251 11.7882C27.0252 14.4326 29.1688 16.5764 31.8133 16.5764Z" fill="black"/>
<path d="M45.2749 31.5174L37.6343 19.7304C37.1103 18.9218 36.2343 18.41 35.2655 18.3937C35.2398 18.3932 28.3852 18.3935 28.3594 18.3937C27.4026 18.4 26.5148 18.9217 25.9906 19.7304L18.3502 31.5174C17.9164 32.1866 17.8833 33.0396 18.2637 33.7402C18.6452 34.4408 19.3789 34.877 20.1761 34.877C20.9139 34.877 21.6007 34.5036 22.0023 33.8845L24.7073 29.7124L22.8313 39.5589C22.7633 39.9152 22.8579 40.2827 23.0892 40.5619C23.3199 40.8416 23.6633 41.0029 24.026 41.0029H25.4297V54.4063C25.4297 55.839 26.5907 57 28.0233 57C29.4552 57 30.6161 55.839 30.6161 54.4072V41.0028H33.0098V54.4062C33.0098 55.8381 34.1708 56.9992 35.6025 56.9992C37.0344 56.9992 38.1953 55.8381 38.1953 54.4062V41.0028H39.599C39.9619 41.0028 40.3053 40.8415 40.5357 40.5618C40.7674 40.2827 40.8616 39.9152 40.7939 39.5588L38.9176 29.7115L41.6225 33.8844C42.0241 34.5036 42.7111 34.8769 43.4487 34.8769C44.2461 34.8769 44.9796 34.4407 45.3612 33.7401C45.7417 33.0396 45.7087 32.1866 45.2749 31.5174Z" fill="black"/>
</svg>
